<svg width="40" height="40" viewBox="0 0 40 40" fill="none" xmlns="http://www.w3.org/2000/svg">
<path d="M14 10.0059L11 14.0059V28.0059C11 28.5363 11.2107 29.045 11.5858 29.4201C11.9609 29.7951 12.4696 30.0059 13 30.0059H27C27.5304 30.0059 28.0391 29.7951 28.4142 29.4201C28.7893 29.045 29 28.5363 29 28.0059V14.0059L26 10.0059H14Z" stroke="#0A661A" stroke-width="2" stroke-linecap="round" stroke-linejoin="round"/>
<path d="M11 14H29" stroke="#0A661A" stroke-width="2" stroke-linecap="round" stroke-linejoin="round"/>
<path d="M24.0007 18C24.0007 19.0609 23.5793 20.0783 22.8292 20.8284C22.079 21.5786 21.0616 22 20.0007 22C18.9399 22 17.9225 21.5786 17.1723 20.8284C16.4222 20.0783 16.0007 19.0609 16.0007 18" stroke="#0A661A" stroke-width="2" stroke-linecap="round" stroke-linejoin="round"/>
</svg>
