<svg width="40" height="40" viewBox="0 0 40 40" fill="none" xmlns="http://www.w3.org/2000/svg">
<path d="M20 30C25.5228 30 30 25.5228 30 20C30 14.4772 25.5228 10 20 10C14.4772 10 10 14.4772 10 20C10 25.5228 14.4772 30 20 30Z" stroke="black" stroke-width="2" stroke-linecap="round" stroke-linejoin="round"/>
<path d="M17.09 17.0006C17.3251 16.3322 17.7891 15.7687 18.3999 15.4097C19.0107 15.0507 19.7289 14.9195 20.4271 15.0393C21.1254 15.1591 21.7588 15.5221 22.215 16.0641C22.6713 16.6061 22.921 17.2921 22.92 18.0006C22.92 20.0006 19.92 21.0006 19.92 21.0006" stroke="black" stroke-width="2" stroke-linecap="round" stroke-linejoin="round"/>
<path d="M20 25H20.01" stroke="black" stroke-width="2" stroke-linecap="round" stroke-linejoin="round"/>
</svg>
