<svg width="40" height="40" viewBox="0 0 40 40" fill="none" xmlns="http://www.w3.org/2000/svg">
<path d="M29.4413 19.0509L20.2513 28.2409C19.1254 29.3667 17.5985 29.9992 16.0063 29.9992C14.4141 29.9992 12.8871 29.3667 11.7613 28.2409C10.6354 27.1151 10.0029 25.5881 10.0029 23.9959C10.0029 22.4037 10.6354 20.8767 11.7613 19.7509L20.9513 10.5609C21.7018 9.81033 22.7198 9.38867 23.7813 9.38867C24.8427 9.38867 25.8607 9.81033 26.6113 10.5609C27.3618 11.3115 27.7835 12.3294 27.7835 13.3909C27.7835 14.4524 27.3618 15.4703 26.6113 16.2209L17.4113 25.4109C17.036 25.7862 16.527 25.997 15.9963 25.997C15.4655 25.997 14.9565 25.7862 14.5813 25.4109C14.206 25.0356 13.9952 24.5266 13.9952 23.9959C13.9952 23.4652 14.206 22.9562 14.5813 22.5809L23.0713 14.1009" stroke="#0A661A" stroke-width="2" stroke-linecap="round" stroke-linejoin="round"/>
</svg>
