<svg width="22" height="24" viewBox="0 0 22 24" fill="none" xmlns="http://www.w3.org/2000/svg">
<path d="M17.4167 10.249H4.58333C3.57081 10.249 2.75 11.0698 2.75 12.0824V18.499C2.75 19.5115 3.57081 20.3324 4.58333 20.3324H17.4167C18.4292 20.3324 19.25 19.5115 19.25 18.499V12.0824C19.25 11.0698 18.4292 10.249 17.4167 10.249Z" stroke="#2929FF" stroke-width="1.83333" stroke-linecap="round" stroke-linejoin="round"/>
<path d="M6.41406 10.249V6.58236C6.41406 5.36678 6.89695 4.20099 7.75649 3.34145C8.61603 2.48191 9.78182 1.99902 10.9974 1.99902C12.213 1.99902 13.3788 2.48191 14.2383 3.34145C15.0978 4.20099 15.5807 5.36678 15.5807 6.58236V10.249" stroke="#2929FF" stroke-width="1.83333" stroke-linecap="round" stroke-linejoin="round"/>
</svg>
