<svg width="40" height="40" viewBox="0 0 40 40" fill="none" xmlns="http://www.w3.org/2000/svg">
<rect width="40" height="40" rx="4" fill="#F7F7FF"/>
<rect x="0.5" y="0.5" width="39" height="39" rx="3.5" stroke="#2929FF" stroke-opacity="0.25"/>
<g clip-path="url(#clip0_381_794)">
<path d="M19.9998 23C21.6566 23 22.9998 21.6569 22.9998 20C22.9998 18.3431 21.6566 17 19.9998 17C18.3429 17 16.9998 18.3431 16.9998 20C16.9998 21.6569 18.3429 23 19.9998 23Z" stroke="#2929FF" stroke-width="2" stroke-linecap="round" stroke-linejoin="round"/>
<path d="M27.3998 23C27.2666 23.3016 27.2269 23.6362 27.2858 23.9606C27.3446 24.285 27.4992 24.5843 27.7298 24.82L27.7898 24.88C27.9757 25.0657 28.1232 25.2863 28.2239 25.5291C28.3245 25.7719 28.3763 26.0322 28.3763 26.295C28.3763 26.5578 28.3245 26.8181 28.2239 27.0609C28.1232 27.3037 27.9757 27.5243 27.7898 27.71C27.604 27.896 27.3834 28.0435 27.1406 28.1441C26.8978 28.2448 26.6376 28.2966 26.3748 28.2966C26.1119 28.2966 25.8517 28.2448 25.6089 28.1441C25.3661 28.0435 25.1455 27.896 24.9598 27.71L24.8998 27.65C24.6641 27.4195 24.3647 27.2648 24.0403 27.206C23.7159 27.1472 23.3814 27.1869 23.0798 27.32C22.784 27.4468 22.5317 27.6572 22.3541 27.9255C22.1764 28.1938 22.081 28.5082 22.0798 28.83V29C22.0798 29.5304 21.869 30.0391 21.494 30.4142C21.1189 30.7893 20.6102 31 20.0798 31C19.5493 31 19.0406 30.7893 18.6655 30.4142C18.2905 30.0391 18.0798 29.5304 18.0798 29V28.91C18.072 28.579 17.9649 28.258 17.7723 27.9887C17.5797 27.7194 17.3105 27.5143 16.9998 27.4C16.6981 27.2669 16.3636 27.2272 16.0392 27.286C15.7148 27.3448 15.4154 27.4995 15.1798 27.73L15.1198 27.79C14.934 27.976 14.7134 28.1235 14.4706 28.2241C14.2278 28.3248 13.9676 28.3766 13.7048 28.3766C13.4419 28.3766 13.1817 28.3248 12.9389 28.2241C12.6961 28.1235 12.4755 27.976 12.2898 27.79C12.1038 27.6043 11.9563 27.3837 11.8556 27.1409C11.755 26.8981 11.7032 26.6378 11.7032 26.375C11.7032 26.1122 11.755 25.8519 11.8556 25.6091C11.9563 25.3663 12.1038 25.1457 12.2898 24.96L12.3498 24.9C12.5803 24.6643 12.7349 24.365 12.7938 24.0406C12.8526 23.7162 12.8129 23.3816 12.6798 23.08C12.553 22.7842 12.3425 22.532 12.0742 22.3543C11.8059 22.1766 11.4915 22.0813 11.1698 22.08H10.9998C10.4693 22.08 9.96062 21.8693 9.58554 21.4942C9.21047 21.1191 8.99976 20.6104 8.99976 20.08C8.99976 19.5496 9.21047 19.0409 9.58554 18.6658C9.96062 18.2907 10.4693 18.08 10.9998 18.08H11.0898C11.4208 18.0723 11.7418 17.9651 12.0111 17.7725C12.2803 17.5799 12.4855 17.3107 12.5998 17C12.7329 16.6984 12.7726 16.3638 12.7138 16.0394C12.6549 15.715 12.5003 15.4157 12.2698 15.18L12.2098 15.12C12.0238 14.9343 11.8763 14.7137 11.7756 14.4709C11.675 14.2281 11.6232 13.9678 11.6232 13.705C11.6232 13.4422 11.675 13.1819 11.7756 12.9391C11.8763 12.6963 12.0238 12.4757 12.2098 12.29C12.3955 12.104 12.6161 11.9565 12.8589 11.8559C13.1017 11.7552 13.3619 11.7034 13.6248 11.7034C13.8876 11.7034 14.1478 11.7552 14.3906 11.8559C14.6334 11.9565 14.854 12.104 15.0398 12.29L15.0998 12.35C15.3354 12.5805 15.6348 12.7352 15.9592 12.794C16.2836 12.8528 16.6181 12.8131 16.9198 12.68H16.9998C17.2955 12.5532 17.5478 12.3428 17.7254 12.0745C17.9031 11.8062 17.9985 11.4918 17.9998 11.17V11C17.9998 10.4696 18.2105 9.96086 18.5855 9.58579C18.9606 9.21071 19.4693 9 19.9998 9C20.5302 9 21.0389 9.21071 21.414 9.58579C21.789 9.96086 21.9998 10.4696 21.9998 11V11.09C22.001 11.4118 22.0964 11.7262 22.2741 11.9945C22.4517 12.2628 22.704 12.4732 22.9998 12.6C23.3014 12.7331 23.6359 12.7728 23.9603 12.714C24.2847 12.6552 24.5841 12.5005 24.8198 12.27L24.8798 12.21C25.0655 12.024 25.2861 11.8765 25.5289 11.7759C25.7717 11.6752 26.0319 11.6234 26.2948 11.6234C26.5576 11.6234 26.8178 11.6752 27.0606 11.7759C27.3034 11.8765 27.524 12.024 27.7098 12.21C27.8957 12.3957 28.0432 12.6163 28.1439 12.8591C28.2445 13.1019 28.2963 13.3622 28.2963 13.625C28.2963 13.8878 28.2445 14.1481 28.1439 14.3909C28.0432 14.6337 27.8957 14.8543 27.7098 15.04L27.6498 15.1C27.4192 15.3357 27.2646 15.635 27.2058 15.9594C27.1469 16.2838 27.1866 16.6184 27.3198 16.92V17C27.4465 17.2958 27.657 17.548 27.9253 17.7257C28.1936 17.9034 28.508 17.9987 28.8298 18H28.9998C29.5302 18 30.0389 18.2107 30.414 18.5858C30.789 18.9609 30.9998 19.4696 30.9998 20C30.9998 20.5304 30.789 21.0391 30.414 21.4142C30.0389 21.7893 29.5302 22 28.9998 22H28.9098C28.588 22.0013 28.2736 22.0966 28.0053 22.2743C27.737 22.452 27.5265 22.7042 27.3998 23Z" stroke="#2929FF" stroke-width="2" stroke-linecap="round" stroke-linejoin="round"/>
</g>
<defs>
<clipPath id="clip0_381_794">
<rect width="24" height="24" fill="white" transform="translate(8 8)"/>
</clipPath>
</defs>
</svg>
