<svg width="40" height="40" viewBox="0 0 40 40" fill="none" xmlns="http://www.w3.org/2000/svg">
<rect width="40" height="40" rx="4" fill="#F7F7FF"/>
<rect x="0.5" y="0.5" width="39" height="39" rx="3.5" stroke="#2929FF" stroke-opacity="0.25"/>
<path d="M13 13.4995C13 12.5713 13.3687 11.681 14.0251 11.0246C14.6815 10.3683 15.5717 9.99951 16.5 9.99951H20V16.9995H16.5C15.5717 16.9995 14.6815 16.6308 14.0251 15.9744C13.3687 15.318 13 14.4278 13 13.4995Z" stroke="#2929FF" stroke-width="2" stroke-linecap="round" stroke-linejoin="round"/>
<path d="M20 9.99951H23.5C23.9596 9.99951 24.4148 10.09 24.8394 10.2659C25.264 10.4418 25.6499 10.6996 25.9749 11.0246C26.2999 11.3496 26.5577 11.7355 26.7336 12.1601C26.9095 12.5848 27 13.0399 27 13.4995C27 13.9591 26.9095 14.4143 26.7336 14.8389C26.5577 15.2635 26.2999 15.6494 25.9749 15.9744C25.6499 16.2994 25.264 16.5572 24.8394 16.7331C24.4148 16.909 23.9596 16.9995 23.5 16.9995H20V9.99951Z" stroke="#2929FF" stroke-width="2" stroke-linecap="round" stroke-linejoin="round"/>
<path d="M20 20.4995C20 20.0399 20.0905 19.5848 20.2664 19.1601C20.4423 18.7355 20.7001 18.3496 21.0251 18.0246C21.3501 17.6996 21.736 17.4418 22.1606 17.2659C22.5852 17.09 23.0404 16.9995 23.5 16.9995C23.9596 16.9995 24.4148 17.09 24.8394 17.2659C25.264 17.4418 25.6499 17.6996 25.9749 18.0246C26.2999 18.3496 26.5577 18.7355 26.7336 19.1601C26.9095 19.5848 27 20.0399 27 20.4995C27 20.9591 26.9095 21.4143 26.7336 21.8389C26.5577 22.2635 26.2999 22.6494 25.9749 22.9744C25.6499 23.2994 25.264 23.5572 24.8394 23.7331C24.4148 23.909 23.9596 23.9995 23.5 23.9995C23.0404 23.9995 22.5852 23.909 22.1606 23.7331C21.736 23.5572 21.3501 23.2994 21.0251 22.9744C20.7001 22.6494 20.4423 22.2635 20.2664 21.8389C20.0905 21.4143 20 20.9591 20 20.4995Z" stroke="#2929FF" stroke-width="2" stroke-linecap="round" stroke-linejoin="round"/>
<path d="M13 27.4995C13 26.5713 13.3687 25.681 14.0251 25.0246C14.6815 24.3683 15.5717 23.9995 16.5 23.9995H20V27.4995C20 28.4278 19.6313 29.318 18.9749 29.9744C18.3185 30.6308 17.4283 30.9995 16.5 30.9995C15.5717 30.9995 14.6815 30.6308 14.0251 29.9744C13.3687 29.318 13 28.4278 13 27.4995Z" stroke="#2929FF" stroke-width="2" stroke-linecap="round" stroke-linejoin="round"/>
<path d="M13 20.4995C13 19.5713 13.3687 18.681 14.0251 18.0246C14.6815 17.3683 15.5717 16.9995 16.5 16.9995H20V23.9995H16.5C15.5717 23.9995 14.6815 23.6308 14.0251 22.9744C13.3687 22.318 13 21.4278 13 20.4995Z" stroke="#2929FF" stroke-width="2" stroke-linecap="round" stroke-linejoin="round"/>
</svg>
