<svg width="40" height="40" viewBox="0 0 40 40" fill="none" xmlns="http://www.w3.org/2000/svg">
<rect width="40" height="40" rx="4" fill="#FFFBF0"/>
<path d="M24 11H26C26.5304 11 27.0391 11.2107 27.4142 11.5858C27.7893 11.9609 28 12.4696 28 13V27C28 27.5304 27.7893 28.0391 27.4142 28.4142C27.0391 28.7893 26.5304 29 26 29H14C13.4696 29 12.9609 28.7893 12.5858 28.4142C12.2107 28.0391 12 27.5304 12 27V13C12 12.4696 12.2107 11.9609 12.5858 11.5858C12.9609 11.2107 13.4696 11 14 11H16" stroke="#FABA05" stroke-width="2" stroke-linecap="round" stroke-linejoin="round"/>
<path d="M23 9H17C16.4477 9 16 9.44772 16 10V12C16 12.5523 16.4477 13 17 13H23C23.5523 13 24 12.5523 24 12V10C24 9.44772 23.5523 9 23 9Z" stroke="#FABA05" stroke-width="2" stroke-linecap="round" stroke-linejoin="round"/>
<rect x="1" y="1" width="38" height="38" rx="3" stroke="#E8AC02" stroke-opacity="0.35" stroke-width="2"/>
</svg>
