<svg width="40" height="40" viewBox="0 0 40 40" fill="none" xmlns="http://www.w3.org/2000/svg">
<rect width="40" height="40" rx="4" fill="#E8AC02" fill-opacity="0.04"/>
<path d="M13 13.4998C13 12.5715 13.3687 11.6813 14.0251 11.0249C14.6815 10.3685 15.5717 9.99976 16.5 9.99976H20V16.9998H16.5C15.5717 16.9998 14.6815 16.631 14.0251 15.9746C13.3687 15.3183 13 14.428 13 13.4998Z" stroke="#E8AC02" stroke-width="2" stroke-linecap="round" stroke-linejoin="round"/>
<path d="M20 9.99976H23.5C23.9596 9.99976 24.4148 10.0903 24.8394 10.2662C25.264 10.4421 25.6499 10.6999 25.9749 11.0249C26.2999 11.3499 26.5577 11.7357 26.7336 12.1604C26.9095 12.585 27 13.0401 27 13.4998C27 13.9594 26.9095 14.4145 26.7336 14.8391C26.5577 15.2638 26.2999 15.6496 25.9749 15.9746C25.6499 16.2996 25.264 16.5574 24.8394 16.7333C24.4148 16.9092 23.9596 16.9998 23.5 16.9998H20V9.99976Z" stroke="#E8AC02" stroke-width="2" stroke-linecap="round" stroke-linejoin="round"/>
<path d="M20 20.4998C20 20.0401 20.0905 19.585 20.2664 19.1604C20.4423 18.7357 20.7001 18.3499 21.0251 18.0249C21.3501 17.6999 21.736 17.4421 22.1606 17.2662C22.5852 17.0903 23.0404 16.9998 23.5 16.9998C23.9596 16.9998 24.4148 17.0903 24.8394 17.2662C25.264 17.4421 25.6499 17.6999 25.9749 18.0249C26.2999 18.3499 26.5577 18.7357 26.7336 19.1604C26.9095 19.585 27 20.0401 27 20.4998C27 20.9594 26.9095 21.4145 26.7336 21.8391C26.5577 22.2638 26.2999 22.6496 25.9749 22.9746C25.6499 23.2996 25.264 23.5574 24.8394 23.7333C24.4148 23.9092 23.9596 23.9998 23.5 23.9998C23.0404 23.9998 22.5852 23.9092 22.1606 23.7333C21.736 23.5574 21.3501 23.2996 21.0251 22.9746C20.7001 22.6496 20.4423 22.2638 20.2664 21.8391C20.0905 21.4145 20 20.9594 20 20.4998Z" stroke="#E8AC02" stroke-width="2" stroke-linecap="round" stroke-linejoin="round"/>
<path d="M13 27.4998C13 26.5715 13.3687 25.6813 14.0251 25.0249C14.6815 24.3685 15.5717 23.9998 16.5 23.9998H20V27.4998C20 28.428 19.6313 29.3183 18.9749 29.9746C18.3185 30.631 17.4283 30.9998 16.5 30.9998C15.5717 30.9998 14.6815 30.631 14.0251 29.9746C13.3687 29.3183 13 28.428 13 27.4998Z" stroke="#E8AC02" stroke-width="2" stroke-linecap="round" stroke-linejoin="round"/>
<path d="M13 20.4998C13 19.5715 13.3687 18.6813 14.0251 18.0249C14.6815 17.3685 15.5717 16.9998 16.5 16.9998H20V23.9998H16.5C15.5717 23.9998 14.6815 23.631 14.0251 22.9746C13.3687 22.3183 13 21.428 13 20.4998Z" stroke="#E8AC02" stroke-width="2" stroke-linecap="round" stroke-linejoin="round"/>
<rect x="0.5" y="0.5" width="39" height="39" rx="3.5" stroke="#E8AC02" stroke-opacity="0.25"/>
</svg>
