<svg width="33" height="33" viewBox="0 0 33 33" fill="none" xmlns="http://www.w3.org/2000/svg">
<path d="M16.4994 30.2505C24.0933 30.2505 30.2494 24.0944 30.2494 16.5005C30.2494 8.90658 24.0933 2.75049 16.4994 2.75049C8.90548 2.75049 2.74939 8.90658 2.74939 16.5005C2.74939 24.0944 8.90548 30.2505 16.4994 30.2505Z" stroke="#E8AC02" stroke-width="2.75" stroke-linecap="round" stroke-linejoin="round"/>
<path d="M12.4979 12.3748C12.8212 11.4558 13.4593 10.681 14.2991 10.1874C15.139 9.69378 16.1264 9.51335 17.0865 9.67804C18.0467 9.84272 18.9175 10.3419 19.5449 11.0872C20.1723 11.8324 20.5156 12.7756 20.5142 13.7498C20.5142 16.4998 16.3892 17.8748 16.3892 17.8748" stroke="#E8AC02" stroke-width="2.75" stroke-linecap="round" stroke-linejoin="round"/>
<path d="M16.5006 23.3755H16.5224" stroke="#E8AC02" stroke-width="2.75" stroke-linecap="round" stroke-linejoin="round"/>
</svg>
