<svg width="24" height="26" viewBox="0 0 24 26" fill="none" xmlns="http://www.w3.org/2000/svg">
<path d="M15.5 7.73877C17.0913 7.73877 18.6174 8.37091 19.7426 9.49613C20.8679 10.6213 21.5 12.1475 21.5 13.7388V20.7388H17.5V13.7388C17.5 13.2083 17.2893 12.6996 16.9142 12.3246C16.5391 11.9495 16.0304 11.7388 15.5 11.7388C14.9696 11.7388 14.4609 11.9495 14.0858 12.3246C13.7107 12.6996 13.5 13.2083 13.5 13.7388V20.7388H9.5V13.7388C9.5 12.1475 10.1321 10.6213 11.2574 9.49613C12.3826 8.37091 13.9087 7.73877 15.5 7.73877Z" stroke="#E8AC02" stroke-width="2" stroke-linecap="round" stroke-linejoin="round"/>
<path d="M5.5 8.73877H1.5V20.7388H5.5V8.73877Z" stroke="#E8AC02" stroke-width="2" stroke-linecap="round" stroke-linejoin="round"/>
<path d="M3.5 5.73877C4.60457 5.73877 5.5 4.84334 5.5 3.73877C5.5 2.6342 4.60457 1.73877 3.5 1.73877C2.39543 1.73877 1.5 2.6342 1.5 3.73877C1.5 4.84334 2.39543 5.73877 3.5 5.73877Z" stroke="#E8AC02" stroke-width="2" stroke-linecap="round" stroke-linejoin="round"/>
</svg>
