<svg width="436" height="840" viewBox="0 0 436 840" fill="none" xmlns="http://www.w3.org/2000/svg">
<g clip-path="url(#clip0_455_18713)">
<path d="M346.5 29.167L362.333 21.667L354.833 37.5003L353.167 30.8337L346.5 29.167Z" stroke="#C9C9D1" stroke-width="1.66667" stroke-linecap="round" stroke-linejoin="round"/>
<path d="M413.333 23.333H415C415.442 23.333 415.866 23.5086 416.178 23.8212C416.491 24.1337 416.666 24.5576 416.666 24.9997V36.6663C416.666 37.1084 416.491 37.5323 416.178 37.8449C415.866 38.1574 415.442 38.333 415 38.333H405C404.558 38.333 404.134 38.1574 403.821 37.8449C403.509 37.5323 403.333 37.1084 403.333 36.6663V24.9997C403.333 24.5576 403.509 24.1337 403.821 23.8212C404.134 23.5086 404.558 23.333 405 23.333H406.666" stroke="#C9C9D1" stroke-width="1.66667" stroke-linecap="round" stroke-linejoin="round"/>
<path d="M412.5 21.667H407.5C407.04 21.667 406.667 22.0401 406.667 22.5003V24.167C406.667 24.6272 407.04 25.0003 407.5 25.0003H412.5C412.96 25.0003 413.333 24.6272 413.333 24.167V22.5003C413.333 22.0401 412.96 21.667 412.5 21.667Z" stroke="#C9C9D1" stroke-width="1.66667" stroke-linecap="round" stroke-linejoin="round"/>
<path d="M304.667 97.5V95.8333C304.667 94.9493 304.315 94.1014 303.69 93.4763C303.065 92.8512 302.217 92.5 301.333 92.5H294.667C293.783 92.5 292.935 92.8512 292.31 93.4763C291.684 94.1014 291.333 94.9493 291.333 95.8333V97.5" stroke="#C9C9D1" stroke-width="1.66667" stroke-linecap="round" stroke-linejoin="round"/>
<path d="M298 89.1667C299.841 89.1667 301.333 87.6743 301.333 85.8333C301.333 83.9924 299.841 82.5 298 82.5C296.159 82.5 294.667 83.9924 294.667 85.8333C294.667 87.6743 296.159 89.1667 298 89.1667Z" stroke="#C9C9D1" stroke-width="1.66667" stroke-linecap="round" stroke-linejoin="round"/>
<g clip-path="url(#clip1_455_18713)">
<path d="M354.084 98.5016C358.733 98.5016 362.502 94.7329 362.502 90.084C362.502 85.4352 358.733 81.6665 354.084 81.6665C349.435 81.6665 345.667 85.4352 345.667 90.084C345.667 94.7329 349.435 98.5016 354.084 98.5016Z" stroke="#C9C9D1" stroke-width="1.66667" stroke-linecap="round" stroke-linejoin="round"/>
<path d="M357.653 86.5156L355.869 91.8692L350.515 93.6537L352.3 88.3001L357.653 86.5156Z" stroke="#C9C9D1" stroke-width="1.66667" stroke-linecap="round" stroke-linejoin="round"/>
</g>
<g clip-path="url(#clip2_455_18713)">
<path d="M410 92.5C411.38 92.5 412.5 91.3807 412.5 90C412.5 88.6193 411.38 87.5 410 87.5C408.619 87.5 407.5 88.6193 407.5 90C407.5 91.3807 408.619 92.5 410 92.5Z" stroke="#C9C9D1" stroke-width="1.66667" stroke-linecap="round" stroke-linejoin="round"/>
<path d="M416.166 92.5002C416.055 92.7515 416.022 93.0303 416.071 93.3007C416.12 93.571 416.249 93.8204 416.441 94.0168L416.491 94.0668C416.646 94.2216 416.769 94.4054 416.853 94.6078C416.937 94.8101 416.98 95.027 416.98 95.246C416.98 95.465 416.937 95.6819 416.853 95.8842C416.769 96.0866 416.646 96.2704 416.491 96.4252C416.336 96.5801 416.153 96.7031 415.95 96.7869C415.748 96.8708 415.531 96.914 415.312 96.914C415.093 96.914 414.876 96.8708 414.674 96.7869C414.471 96.7031 414.288 96.5801 414.133 96.4252L414.083 96.3752C413.886 96.1831 413.637 96.0542 413.367 96.0052C413.096 95.9561 412.818 95.9892 412.566 96.1002C412.32 96.2058 412.11 96.3812 411.961 96.6048C411.813 96.8284 411.734 97.0903 411.733 97.3585V97.5002C411.733 97.9422 411.557 98.3661 411.245 98.6787C410.932 98.9912 410.508 99.1668 410.066 99.1668C409.624 99.1668 409.2 98.9912 408.888 98.6787C408.575 98.3661 408.4 97.9422 408.4 97.5002V97.4252C408.393 97.1493 408.304 96.8818 408.143 96.6574C407.983 96.433 407.758 96.2621 407.5 96.1668C407.248 96.0559 406.969 96.0228 406.699 96.0718C406.429 96.1208 406.179 96.2497 405.983 96.4418L405.933 96.4918C405.778 96.6468 405.594 96.7697 405.392 96.8536C405.19 96.9375 404.973 96.9806 404.754 96.9806C404.535 96.9806 404.318 96.9375 404.115 96.8536C403.913 96.7697 403.729 96.6468 403.575 96.4918C403.42 96.337 403.297 96.1532 403.213 95.9509C403.129 95.7486 403.086 95.5317 403.086 95.3127C403.086 95.0936 403.129 94.8768 403.213 94.6744C403.297 94.4721 403.42 94.2883 403.575 94.1335L403.625 94.0835C403.817 93.8871 403.946 93.6377 403.995 93.3673C404.044 93.097 404.01 92.8182 403.9 92.5668C403.794 92.3204 403.619 92.1101 403.395 91.9621C403.171 91.814 402.909 91.7346 402.641 91.7335H402.5C402.058 91.7335 401.634 91.5579 401.321 91.2453C401.008 90.9328 400.833 90.5089 400.833 90.0668C400.833 89.6248 401.008 89.2009 401.321 88.8883C401.634 88.5758 402.058 88.4002 402.5 88.4002H402.575C402.85 88.3937 403.118 88.3044 403.342 88.1439C403.567 87.9834 403.738 87.7591 403.833 87.5002C403.944 87.2488 403.977 86.97 403.928 86.6997C403.879 86.4293 403.75 86.1799 403.558 85.9835L403.508 85.9335C403.353 85.7787 403.23 85.5949 403.146 85.3926C403.062 85.1902 403.019 84.9734 403.019 84.7543C403.019 84.5353 403.062 84.3184 403.146 84.1161C403.23 83.9138 403.353 83.73 403.508 83.5752C403.663 83.4202 403.846 83.2973 404.049 83.2134C404.251 83.1295 404.468 83.0864 404.687 83.0864C404.906 83.0864 405.123 83.1295 405.325 83.2134C405.528 83.2973 405.711 83.4202 405.866 83.5752L405.916 83.6252C406.113 83.8173 406.362 83.9462 406.632 83.9952C406.903 84.0442 407.182 84.0111 407.433 83.9002H407.5C407.746 83.7945 407.956 83.6191 408.104 83.3956C408.252 83.172 408.332 82.91 408.333 82.6418V82.5002C408.333 82.0581 408.508 81.6342 408.821 81.3217C409.134 81.0091 409.558 80.8335 410 80.8335C410.442 80.8335 410.866 81.0091 411.178 81.3217C411.491 81.6342 411.666 82.0581 411.666 82.5002V82.5752C411.667 82.8433 411.747 83.1053 411.895 83.3289C412.043 83.5525 412.253 83.7279 412.5 83.8335C412.751 83.9444 413.03 83.9775 413.3 83.9285C413.57 83.8795 413.82 83.7506 414.016 83.5585L414.066 83.5085C414.221 83.3535 414.405 83.2306 414.607 83.1467C414.809 83.0629 415.026 83.0197 415.245 83.0197C415.464 83.0197 415.681 83.0629 415.884 83.1467C416.086 83.2306 416.27 83.3535 416.425 83.5085C416.58 83.6633 416.702 83.8471 416.786 84.0494C416.87 84.2518 416.913 84.4686 416.913 84.6877C416.913 84.9067 416.87 85.1236 416.786 85.3259C416.702 85.5282 416.58 85.712 416.425 85.8668L416.375 85.9168C416.182 86.1132 416.054 86.3627 416.005 86.633C415.956 86.9033 415.989 87.1822 416.1 87.4335V87.5002C416.205 87.7466 416.381 87.9568 416.604 88.1049C416.828 88.253 417.09 88.3324 417.358 88.3335H417.5C417.942 88.3335 418.366 88.5091 418.678 88.8217C418.991 89.1342 419.166 89.5581 419.166 90.0002C419.166 90.4422 418.991 90.8661 418.678 91.1787C418.366 91.4912 417.942 91.6668 417.5 91.6668H417.425C417.156 91.6679 416.894 91.7474 416.671 91.8954C416.447 92.0435 416.272 92.2537 416.166 92.5002Z" stroke="#C9C9D1" stroke-width="1.66667" stroke-linecap="round" stroke-linejoin="round"/>
</g>
<g clip-path="url(#clip3_455_18713)">
<path d="M246 152.5C247.38 152.5 248.5 151.381 248.5 150C248.5 148.619 247.38 147.5 246 147.5C244.619 147.5 243.5 148.619 243.5 150C243.5 151.381 244.619 152.5 246 152.5Z" stroke="#C9C9D1" stroke-width="1.66667" stroke-linecap="round" stroke-linejoin="round"/>
<path d="M252.166 152.5C252.055 152.752 252.022 153.03 252.071 153.301C252.12 153.571 252.249 153.82 252.441 154.017L252.491 154.067C252.646 154.222 252.769 154.405 252.853 154.608C252.937 154.81 252.98 155.027 252.98 155.246C252.98 155.465 252.937 155.682 252.853 155.884C252.769 156.087 252.646 156.27 252.491 156.425C252.336 156.58 252.153 156.703 251.95 156.787C251.748 156.871 251.531 156.914 251.312 156.914C251.093 156.914 250.876 156.871 250.674 156.787C250.471 156.703 250.288 156.58 250.133 156.425L250.083 156.375C249.886 156.183 249.637 156.054 249.367 156.005C249.096 155.956 248.818 155.989 248.566 156.1C248.32 156.206 248.11 156.381 247.961 156.605C247.813 156.828 247.734 157.09 247.733 157.358V157.5C247.733 157.942 247.557 158.366 247.245 158.679C246.932 158.991 246.508 159.167 246.066 159.167C245.624 159.167 245.2 158.991 244.888 158.679C244.575 158.366 244.4 157.942 244.4 157.5V157.425C244.393 157.149 244.304 156.882 244.143 156.657C243.983 156.433 243.758 156.262 243.5 156.167C243.248 156.056 242.969 156.023 242.699 156.072C242.429 156.121 242.179 156.25 241.983 156.442L241.933 156.492C241.778 156.647 241.594 156.77 241.392 156.854C241.19 156.937 240.973 156.981 240.754 156.981C240.535 156.981 240.318 156.937 240.115 156.854C239.913 156.77 239.729 156.647 239.575 156.492C239.42 156.337 239.297 156.153 239.213 155.951C239.129 155.749 239.086 155.532 239.086 155.313C239.086 155.094 239.129 154.877 239.213 154.674C239.297 154.472 239.42 154.288 239.575 154.133L239.625 154.083C239.817 153.887 239.946 153.638 239.995 153.367C240.044 153.097 240.01 152.818 239.9 152.567C239.794 152.32 239.619 152.11 239.395 151.962C239.171 151.814 238.909 151.735 238.641 151.733H238.5C238.058 151.733 237.634 151.558 237.321 151.245C237.008 150.933 236.833 150.509 236.833 150.067C236.833 149.625 237.008 149.201 237.321 148.888C237.634 148.576 238.058 148.4 238.5 148.4H238.575C238.85 148.394 239.118 148.304 239.342 148.144C239.567 147.983 239.738 147.759 239.833 147.5C239.944 147.249 239.977 146.97 239.928 146.7C239.879 146.429 239.75 146.18 239.558 145.983L239.508 145.933C239.353 145.779 239.23 145.595 239.146 145.393C239.062 145.19 239.019 144.973 239.019 144.754C239.019 144.535 239.062 144.318 239.146 144.116C239.23 143.914 239.353 143.73 239.508 143.575C239.663 143.42 239.846 143.297 240.049 143.213C240.251 143.13 240.468 143.086 240.687 143.086C240.906 143.086 241.123 143.13 241.325 143.213C241.528 143.297 241.711 143.42 241.866 143.575L241.916 143.625C242.113 143.817 242.362 143.946 242.632 143.995C242.903 144.044 243.182 144.011 243.433 143.9H243.5C243.746 143.795 243.956 143.619 244.104 143.396C244.252 143.172 244.332 142.91 244.333 142.642V142.5C244.333 142.058 244.508 141.634 244.821 141.322C245.134 141.009 245.558 140.833 246 140.833C246.442 140.833 246.866 141.009 247.178 141.322C247.491 141.634 247.666 142.058 247.666 142.5V142.575C247.667 142.843 247.747 143.105 247.895 143.329C248.043 143.552 248.253 143.728 248.5 143.833C248.751 143.944 249.03 143.978 249.3 143.929C249.57 143.879 249.82 143.751 250.016 143.558L250.066 143.508C250.221 143.354 250.405 143.231 250.607 143.147C250.809 143.063 251.026 143.02 251.245 143.02C251.464 143.02 251.681 143.063 251.884 143.147C252.086 143.231 252.27 143.354 252.425 143.508C252.58 143.663 252.702 143.847 252.786 144.049C252.87 144.252 252.913 144.469 252.913 144.688C252.913 144.907 252.87 145.124 252.786 145.326C252.702 145.528 252.58 145.712 252.425 145.867L252.375 145.917C252.182 146.113 252.054 146.363 252.005 146.633C251.956 146.903 251.989 147.182 252.1 147.433V147.5C252.205 147.747 252.381 147.957 252.604 148.105C252.828 148.253 253.09 148.332 253.358 148.333H253.5C253.942 148.333 254.366 148.509 254.678 148.822C254.991 149.134 255.166 149.558 255.166 150C255.166 150.442 254.991 150.866 254.678 151.179C254.366 151.491 253.942 151.667 253.5 151.667H253.425C253.156 151.668 252.894 151.747 252.671 151.895C252.447 152.043 252.272 152.254 252.166 152.5Z" stroke="#C9C9D1" stroke-width="1.66667" stroke-linecap="round" stroke-linejoin="round"/>
</g>
<g clip-path="url(#clip4_455_18713)">
<path d="M298 158.334C302.602 158.334 306.333 154.603 306.333 150C306.333 145.398 302.602 141.667 298 141.667C293.398 141.667 289.667 145.398 289.667 150C289.667 154.603 293.398 158.334 298 158.334Z" stroke="#C9C9D1" stroke-width="1.66667" stroke-linecap="round" stroke-linejoin="round"/>
<path d="M298 155C300.762 155 303 152.761 303 150C303 147.239 300.762 145 298 145C295.239 145 293 147.239 293 150C293 152.761 295.239 155 298 155Z" stroke="#C9C9D1" stroke-width="1.66667" stroke-linecap="round" stroke-linejoin="round"/>
<path d="M298 151.666C298.92 151.666 299.667 150.92 299.667 150C299.667 149.079 298.92 148.333 298 148.333C297.079 148.333 296.333 149.079 296.333 150C296.333 150.92 297.079 151.666 298 151.666Z" stroke="#C9C9D1" stroke-width="1.66667" stroke-linecap="round" stroke-linejoin="round"/>
</g>
<path d="M346.5 149.167L362.333 141.667L354.833 157.5L353.167 150.834L346.5 149.167Z" stroke="#C9C9D1" stroke-width="1.66667" stroke-linecap="round" stroke-linejoin="round"/>
<path d="M413.333 143.333H415C415.442 143.333 415.866 143.509 416.178 143.821C416.491 144.134 416.666 144.558 416.666 145V156.666C416.666 157.108 416.491 157.532 416.178 157.845C415.866 158.157 415.442 158.333 415 158.333H405C404.558 158.333 404.134 158.157 403.821 157.845C403.509 157.532 403.333 157.108 403.333 156.666V145C403.333 144.558 403.509 144.134 403.821 143.821C404.134 143.509 404.558 143.333 405 143.333H406.666" stroke="#C9C9D1" stroke-width="1.66667" stroke-linecap="round" stroke-linejoin="round"/>
<path d="M412.5 141.667H407.5C407.04 141.667 406.667 142.04 406.667 142.5V144.167C406.667 144.627 407.04 145 407.5 145H412.5C412.96 145 413.333 144.627 413.333 144.167V142.5C413.333 142.04 412.96 141.667 412.5 141.667Z" stroke="#C9C9D1" stroke-width="1.66667" stroke-linecap="round" stroke-linejoin="round"/>
<path d="M249.333 203.333H251C251.442 203.333 251.866 203.509 252.178 203.821C252.491 204.134 252.666 204.558 252.666 205V216.666C252.666 217.108 252.491 217.532 252.178 217.845C251.866 218.157 251.442 218.333 251 218.333H241C240.558 218.333 240.134 218.157 239.821 217.845C239.509 217.532 239.333 217.108 239.333 216.666V205C239.333 204.558 239.509 204.134 239.821 203.821C240.134 203.509 240.558 203.333 241 203.333H242.666" stroke="#C9C9D1" stroke-width="1.66667" stroke-linecap="round" stroke-linejoin="round"/>
<path d="M248.5 201.667H243.5C243.04 201.667 242.667 202.04 242.667 202.5V204.167C242.667 204.627 243.04 205 243.5 205H248.5C248.96 205 249.333 204.627 249.333 204.167V202.5C249.333 202.04 248.96 201.667 248.5 201.667Z" stroke="#C9C9D1" stroke-width="1.66667" stroke-linecap="round" stroke-linejoin="round"/>
<path d="M304.667 217.5V215.833C304.667 214.949 304.315 214.101 303.69 213.476C303.065 212.851 302.217 212.5 301.333 212.5H294.667C293.783 212.5 292.935 212.851 292.31 213.476C291.684 214.101 291.333 214.949 291.333 215.833V217.5" stroke="#C9C9D1" stroke-width="1.66667" stroke-linecap="round" stroke-linejoin="round"/>
<path d="M298 209.167C299.841 209.167 301.333 207.674 301.333 205.833C301.333 203.992 299.841 202.5 298 202.5C296.159 202.5 294.667 203.992 294.667 205.833C294.667 207.674 296.159 209.167 298 209.167Z" stroke="#C9C9D1" stroke-width="1.66667" stroke-linecap="round" stroke-linejoin="round"/>
<g clip-path="url(#clip5_455_18713)">
<path d="M354.084 218.502C358.733 218.502 362.502 214.733 362.502 210.084C362.502 205.435 358.733 201.667 354.084 201.667C349.435 201.667 345.667 205.435 345.667 210.084C345.667 214.733 349.435 218.502 354.084 218.502Z" stroke="#C9C9D1" stroke-width="1.66667" stroke-linecap="round" stroke-linejoin="round"/>
<path d="M357.653 206.516L355.869 211.869L350.515 213.654L352.3 208.3L357.653 206.516Z" stroke="#C9C9D1" stroke-width="1.66667" stroke-linecap="round" stroke-linejoin="round"/>
</g>
<g clip-path="url(#clip6_455_18713)">
<path d="M410 212.5C411.38 212.5 412.5 211.381 412.5 210C412.5 208.619 411.38 207.5 410 207.5C408.619 207.5 407.5 208.619 407.5 210C407.5 211.381 408.619 212.5 410 212.5Z" stroke="#C9C9D1" stroke-width="1.66667" stroke-linecap="round" stroke-linejoin="round"/>
<path d="M416.166 212.5C416.055 212.752 416.022 213.03 416.071 213.301C416.12 213.571 416.249 213.82 416.441 214.017L416.491 214.067C416.646 214.222 416.769 214.405 416.853 214.608C416.937 214.81 416.98 215.027 416.98 215.246C416.98 215.465 416.937 215.682 416.853 215.884C416.769 216.087 416.646 216.27 416.491 216.425C416.336 216.58 416.153 216.703 415.95 216.787C415.748 216.871 415.531 216.914 415.312 216.914C415.093 216.914 414.876 216.871 414.674 216.787C414.471 216.703 414.288 216.58 414.133 216.425L414.083 216.375C413.886 216.183 413.637 216.054 413.367 216.005C413.096 215.956 412.818 215.989 412.566 216.1C412.32 216.206 412.11 216.381 411.961 216.605C411.813 216.828 411.734 217.09 411.733 217.358V217.5C411.733 217.942 411.557 218.366 411.245 218.679C410.932 218.991 410.508 219.167 410.066 219.167C409.624 219.167 409.2 218.991 408.888 218.679C408.575 218.366 408.4 217.942 408.4 217.5V217.425C408.393 217.149 408.304 216.882 408.143 216.657C407.983 216.433 407.758 216.262 407.5 216.167C407.248 216.056 406.969 216.023 406.699 216.072C406.429 216.121 406.179 216.25 405.983 216.442L405.933 216.492C405.778 216.647 405.594 216.77 405.392 216.854C405.19 216.937 404.973 216.981 404.754 216.981C404.535 216.981 404.318 216.937 404.115 216.854C403.913 216.77 403.729 216.647 403.575 216.492C403.42 216.337 403.297 216.153 403.213 215.951C403.129 215.749 403.086 215.532 403.086 215.313C403.086 215.094 403.129 214.877 403.213 214.674C403.297 214.472 403.42 214.288 403.575 214.133L403.625 214.083C403.817 213.887 403.946 213.638 403.995 213.367C404.044 213.097 404.01 212.818 403.9 212.567C403.794 212.32 403.619 212.11 403.395 211.962C403.171 211.814 402.909 211.735 402.641 211.733H402.5C402.058 211.733 401.634 211.558 401.321 211.245C401.008 210.933 400.833 210.509 400.833 210.067C400.833 209.625 401.008 209.201 401.321 208.888C401.634 208.576 402.058 208.4 402.5 208.4H402.575C402.85 208.394 403.118 208.304 403.342 208.144C403.567 207.983 403.738 207.759 403.833 207.5C403.944 207.249 403.977 206.97 403.928 206.7C403.879 206.429 403.75 206.18 403.558 205.983L403.508 205.933C403.353 205.779 403.23 205.595 403.146 205.393C403.062 205.19 403.019 204.973 403.019 204.754C403.019 204.535 403.062 204.318 403.146 204.116C403.23 203.914 403.353 203.73 403.508 203.575C403.663 203.42 403.846 203.297 404.049 203.213C404.251 203.13 404.468 203.086 404.687 203.086C404.906 203.086 405.123 203.13 405.325 203.213C405.528 203.297 405.711 203.42 405.866 203.575L405.916 203.625C406.113 203.817 406.362 203.946 406.632 203.995C406.903 204.044 407.182 204.011 407.433 203.9H407.5C407.746 203.795 407.956 203.619 408.104 203.396C408.252 203.172 408.332 202.91 408.333 202.642V202.5C408.333 202.058 408.508 201.634 408.821 201.322C409.134 201.009 409.558 200.833 410 200.833C410.442 200.833 410.866 201.009 411.178 201.322C411.491 201.634 411.666 202.058 411.666 202.5V202.575C411.667 202.843 411.747 203.105 411.895 203.329C412.043 203.552 412.253 203.728 412.5 203.833C412.751 203.944 413.03 203.978 413.3 203.929C413.57 203.879 413.82 203.751 414.016 203.558L414.066 203.508C414.221 203.354 414.405 203.231 414.607 203.147C414.809 203.063 415.026 203.02 415.245 203.02C415.464 203.02 415.681 203.063 415.884 203.147C416.086 203.231 416.27 203.354 416.425 203.508C416.58 203.663 416.702 203.847 416.786 204.049C416.87 204.252 416.913 204.469 416.913 204.688C416.913 204.907 416.87 205.124 416.786 205.326C416.702 205.528 416.58 205.712 416.425 205.867L416.375 205.917C416.182 206.113 416.054 206.363 416.005 206.633C415.956 206.903 415.989 207.182 416.1 207.433V207.5C416.205 207.747 416.381 207.957 416.604 208.105C416.828 208.253 417.09 208.332 417.358 208.333H417.5C417.942 208.333 418.366 208.509 418.678 208.822C418.991 209.134 419.166 209.558 419.166 210C419.166 210.442 418.991 210.866 418.678 211.179C418.366 211.491 417.942 211.667 417.5 211.667H417.425C417.156 211.668 416.894 211.747 416.671 211.895C416.447 212.043 416.272 212.254 416.166 212.5Z" stroke="#C9C9D1" stroke-width="1.66667" stroke-linecap="round" stroke-linejoin="round"/>
</g>
<g clip-path="url(#clip7_455_18713)">
<path d="M298 278.334C302.602 278.334 306.333 274.603 306.333 270C306.333 265.398 302.602 261.667 298 261.667C293.398 261.667 289.667 265.398 289.667 270C289.667 274.603 293.398 278.334 298 278.334Z" stroke="#C9C9D1" stroke-width="1.66667" stroke-linecap="round" stroke-linejoin="round"/>
<path d="M298 275C300.762 275 303 272.761 303 270C303 267.239 300.762 265 298 265C295.239 265 293 267.239 293 270C293 272.761 295.239 275 298 275Z" stroke="#C9C9D1" stroke-width="1.66667" stroke-linecap="round" stroke-linejoin="round"/>
<path d="M298 271.666C298.92 271.666 299.667 270.92 299.667 270C299.667 269.079 298.92 268.333 298 268.333C297.079 268.333 296.333 269.079 296.333 270C296.333 270.92 297.079 271.666 298 271.666Z" stroke="#C9C9D1" stroke-width="1.66667" stroke-linecap="round" stroke-linejoin="round"/>
</g>
<path d="M346.5 269.167L362.333 261.667L354.833 277.5L353.167 270.834L346.5 269.167Z" stroke="#C9C9D1" stroke-width="1.66667" stroke-linecap="round" stroke-linejoin="round"/>
<path d="M413.333 263.333H415C415.442 263.333 415.866 263.509 416.178 263.821C416.491 264.134 416.666 264.558 416.666 265V276.666C416.666 277.108 416.491 277.532 416.178 277.845C415.866 278.157 415.442 278.333 415 278.333H405C404.558 278.333 404.134 278.157 403.821 277.845C403.509 277.532 403.333 277.108 403.333 276.666V265C403.333 264.558 403.509 264.134 403.821 263.821C404.134 263.509 404.558 263.333 405 263.333H406.666" stroke="#C9C9D1" stroke-width="1.66667" stroke-linecap="round" stroke-linejoin="round"/>
<path d="M412.5 261.667H407.5C407.04 261.667 406.667 262.04 406.667 262.5V264.167C406.667 264.627 407.04 265 407.5 265H412.5C412.96 265 413.333 264.627 413.333 264.167V262.5C413.333 262.04 412.96 261.667 412.5 261.667Z" stroke="#C9C9D1" stroke-width="1.66667" stroke-linecap="round" stroke-linejoin="round"/>
<g clip-path="url(#clip8_455_18713)">
<path d="M134 338.334C138.602 338.334 142.333 334.603 142.333 330C142.333 325.398 138.602 321.667 134 321.667C129.398 321.667 125.667 325.398 125.667 330C125.667 334.603 129.398 338.334 134 338.334Z" stroke="#C9C9D1" stroke-width="1.66667" stroke-linecap="round" stroke-linejoin="round"/>
<path d="M134 335C136.762 335 139 332.761 139 330C139 327.239 136.762 325 134 325C131.239 325 129 327.239 129 330C129 332.761 131.239 335 134 335Z" stroke="#C9C9D1" stroke-width="1.66667" stroke-linecap="round" stroke-linejoin="round"/>
<path d="M134 331.666C134.92 331.666 135.667 330.92 135.667 330C135.667 329.079 134.92 328.333 134 328.333C133.079 328.333 132.333 329.079 132.333 330C132.333 330.92 133.079 331.666 134 331.666Z" stroke="#C9C9D1" stroke-width="1.66667" stroke-linecap="round" stroke-linejoin="round"/>
</g>
<path d="M182.5 329.167L198.333 321.667L190.833 337.5L189.167 330.834L182.5 329.167Z" stroke="#C9C9D1" stroke-width="1.66667" stroke-linecap="round" stroke-linejoin="round"/>
<path d="M249.333 323.333H251C251.442 323.333 251.866 323.509 252.178 323.821C252.491 324.134 252.666 324.558 252.666 325V336.666C252.666 337.108 252.491 337.532 252.178 337.845C251.866 338.157 251.442 338.333 251 338.333H241C240.558 338.333 240.134 338.157 239.821 337.845C239.509 337.532 239.333 337.108 239.333 336.666V325C239.333 324.558 239.509 324.134 239.821 323.821C240.134 323.509 240.558 323.333 241 323.333H242.666" stroke="#C9C9D1" stroke-width="1.66667" stroke-linecap="round" stroke-linejoin="round"/>
<path d="M248.5 321.667H243.5C243.04 321.667 242.667 322.04 242.667 322.5V324.167C242.667 324.627 243.04 325 243.5 325H248.5C248.96 325 249.333 324.627 249.333 324.167V322.5C249.333 322.04 248.96 321.667 248.5 321.667Z" stroke="#C9C9D1" stroke-width="1.66667" stroke-linecap="round" stroke-linejoin="round"/>
<path d="M304.667 337.5V335.833C304.667 334.949 304.315 334.101 303.69 333.476C303.065 332.851 302.217 332.5 301.333 332.5H294.667C293.783 332.5 292.935 332.851 292.31 333.476C291.684 334.101 291.333 334.949 291.333 335.833V337.5" stroke="#C9C9D1" stroke-width="1.66667" stroke-linecap="round" stroke-linejoin="round"/>
<path d="M298 329.167C299.841 329.167 301.333 327.674 301.333 325.833C301.333 323.992 299.841 322.5 298 322.5C296.159 322.5 294.667 323.992 294.667 325.833C294.667 327.674 296.159 329.167 298 329.167Z" stroke="#C9C9D1" stroke-width="1.66667" stroke-linecap="round" stroke-linejoin="round"/>
<g clip-path="url(#clip9_455_18713)">
<path d="M354.084 338.502C358.733 338.502 362.502 334.733 362.502 330.084C362.502 325.435 358.733 321.667 354.084 321.667C349.435 321.667 345.667 325.435 345.667 330.084C345.667 334.733 349.435 338.502 354.084 338.502Z" stroke="#C9C9D1" stroke-width="1.66667" stroke-linecap="round" stroke-linejoin="round"/>
<path d="M357.653 326.516L355.869 331.869L350.515 333.654L352.3 328.3L357.653 326.516Z" stroke="#C9C9D1" stroke-width="1.66667" stroke-linecap="round" stroke-linejoin="round"/>
</g>
<g clip-path="url(#clip10_455_18713)">
<path d="M410 332.5C411.38 332.5 412.5 331.381 412.5 330C412.5 328.619 411.38 327.5 410 327.5C408.619 327.5 407.5 328.619 407.5 330C407.5 331.381 408.619 332.5 410 332.5Z" stroke="#C9C9D1" stroke-width="1.66667" stroke-linecap="round" stroke-linejoin="round"/>
<path d="M416.166 332.5C416.055 332.752 416.022 333.03 416.071 333.301C416.12 333.571 416.249 333.82 416.441 334.017L416.491 334.067C416.646 334.222 416.769 334.405 416.853 334.608C416.937 334.81 416.98 335.027 416.98 335.246C416.98 335.465 416.937 335.682 416.853 335.884C416.769 336.087 416.646 336.27 416.491 336.425C416.336 336.58 416.153 336.703 415.95 336.787C415.748 336.871 415.531 336.914 415.312 336.914C415.093 336.914 414.876 336.871 414.674 336.787C414.471 336.703 414.288 336.58 414.133 336.425L414.083 336.375C413.886 336.183 413.637 336.054 413.367 336.005C413.096 335.956 412.818 335.989 412.566 336.1C412.32 336.206 412.11 336.381 411.961 336.605C411.813 336.828 411.734 337.09 411.733 337.358V337.5C411.733 337.942 411.557 338.366 411.245 338.679C410.932 338.991 410.508 339.167 410.066 339.167C409.624 339.167 409.2 338.991 408.888 338.679C408.575 338.366 408.4 337.942 408.4 337.5V337.425C408.393 337.149 408.304 336.882 408.143 336.657C407.983 336.433 407.758 336.262 407.5 336.167C407.248 336.056 406.969 336.023 406.699 336.072C406.429 336.121 406.179 336.25 405.983 336.442L405.933 336.492C405.778 336.647 405.594 336.77 405.392 336.854C405.19 336.937 404.973 336.981 404.754 336.981C404.535 336.981 404.318 336.937 404.115 336.854C403.913 336.77 403.729 336.647 403.575 336.492C403.42 336.337 403.297 336.153 403.213 335.951C403.129 335.749 403.086 335.532 403.086 335.313C403.086 335.094 403.129 334.877 403.213 334.674C403.297 334.472 403.42 334.288 403.575 334.133L403.625 334.083C403.817 333.887 403.946 333.638 403.995 333.367C404.044 333.097 404.01 332.818 403.9 332.567C403.794 332.32 403.619 332.11 403.395 331.962C403.171 331.814 402.909 331.735 402.641 331.733H402.5C402.058 331.733 401.634 331.558 401.321 331.245C401.008 330.933 400.833 330.509 400.833 330.067C400.833 329.625 401.008 329.201 401.321 328.888C401.634 328.576 402.058 328.4 402.5 328.4H402.575C402.85 328.394 403.118 328.304 403.342 328.144C403.567 327.983 403.738 327.759 403.833 327.5C403.944 327.249 403.977 326.97 403.928 326.7C403.879 326.429 403.75 326.18 403.558 325.983L403.508 325.933C403.353 325.779 403.23 325.595 403.146 325.393C403.062 325.19 403.019 324.973 403.019 324.754C403.019 324.535 403.062 324.318 403.146 324.116C403.23 323.914 403.353 323.73 403.508 323.575C403.663 323.42 403.846 323.297 404.049 323.213C404.251 323.13 404.468 323.086 404.687 323.086C404.906 323.086 405.123 323.13 405.325 323.213C405.528 323.297 405.711 323.42 405.866 323.575L405.916 323.625C406.113 323.817 406.362 323.946 406.632 323.995C406.903 324.044 407.182 324.011 407.433 323.9H407.5C407.746 323.795 407.956 323.619 408.104 323.396C408.252 323.172 408.332 322.91 408.333 322.642V322.5C408.333 322.058 408.508 321.634 408.821 321.322C409.134 321.009 409.558 320.833 410 320.833C410.442 320.833 410.866 321.009 411.178 321.322C411.491 321.634 411.666 322.058 411.666 322.5V322.575C411.667 322.843 411.747 323.105 411.895 323.329C412.043 323.552 412.253 323.728 412.5 323.833C412.751 323.944 413.03 323.978 413.3 323.929C413.57 323.879 413.82 323.751 414.016 323.558L414.066 323.508C414.221 323.354 414.405 323.231 414.607 323.147C414.809 323.063 415.026 323.02 415.245 323.02C415.464 323.02 415.681 323.063 415.884 323.147C416.086 323.231 416.27 323.354 416.425 323.508C416.58 323.663 416.702 323.847 416.786 324.049C416.87 324.252 416.913 324.469 416.913 324.688C416.913 324.907 416.87 325.124 416.786 325.326C416.702 325.528 416.58 325.712 416.425 325.867L416.375 325.917C416.182 326.113 416.054 326.363 416.005 326.633C415.956 326.903 415.989 327.182 416.1 327.433V327.5C416.205 327.747 416.381 327.957 416.604 328.105C416.828 328.253 417.09 328.332 417.358 328.333H417.5C417.942 328.333 418.366 328.509 418.678 328.822C418.991 329.134 419.166 329.558 419.166 330C419.166 330.442 418.991 330.866 418.678 331.179C418.366 331.491 417.942 331.667 417.5 331.667H417.425C417.156 331.668 416.894 331.747 416.671 331.895C416.447 332.043 416.272 332.254 416.166 332.5Z" stroke="#C9C9D1" stroke-width="1.66667" stroke-linecap="round" stroke-linejoin="round"/>
</g>
<path d="M85.3331 383.333H86.9998C87.4418 383.333 87.8657 383.509 88.1783 383.821C88.4909 384.134 88.6665 384.558 88.6665 385V396.666C88.6665 397.108 88.4909 397.532 88.1783 397.845C87.8657 398.157 87.4418 398.333 86.9998 398.333H76.9998C76.5578 398.333 76.1338 398.157 75.8213 397.845C75.5087 397.532 75.3331 397.108 75.3331 396.666V385C75.3331 384.558 75.5087 384.134 75.8213 383.821C76.1338 383.509 76.5578 383.333 76.9998 383.333H78.6665" stroke="#C9C9D1" stroke-width="1.66667" stroke-linecap="round" stroke-linejoin="round"/>
<path d="M84.5 381.667H79.5C79.0397 381.667 78.6666 382.04 78.6666 382.5V384.167C78.6666 384.627 79.0397 385 79.5 385H84.5C84.9602 385 85.3333 384.627 85.3333 384.167V382.5C85.3333 382.04 84.9602 381.667 84.5 381.667Z" stroke="#C9C9D1" stroke-width="1.66667" stroke-linecap="round" stroke-linejoin="round"/>
<path d="M140.667 397.5V395.833C140.667 394.949 140.315 394.101 139.69 393.476C139.065 392.851 138.217 392.5 137.333 392.5H130.667C129.783 392.5 128.935 392.851 128.31 393.476C127.684 394.101 127.333 394.949 127.333 395.833V397.5" stroke="#C9C9D1" stroke-width="1.66667" stroke-linecap="round" stroke-linejoin="round"/>
<path d="M134 389.167C135.841 389.167 137.333 387.674 137.333 385.833C137.333 383.992 135.841 382.5 134 382.5C132.159 382.5 130.667 383.992 130.667 385.833C130.667 387.674 132.159 389.167 134 389.167Z" stroke="#C9C9D1" stroke-width="1.66667" stroke-linecap="round" stroke-linejoin="round"/>
<g clip-path="url(#clip11_455_18713)">
<path d="M190.084 398.502C194.733 398.502 198.502 394.733 198.502 390.084C198.502 385.435 194.733 381.667 190.084 381.667C185.435 381.667 181.667 385.435 181.667 390.084C181.667 394.733 185.435 398.502 190.084 398.502Z" stroke="#C9C9D1" stroke-width="1.66667" stroke-linecap="round" stroke-linejoin="round"/>
<path d="M193.653 386.516L191.869 391.869L186.515 393.654L188.3 388.3L193.653 386.516Z" stroke="#C9C9D1" stroke-width="1.66667" stroke-linecap="round" stroke-linejoin="round"/>
</g>
<g clip-path="url(#clip12_455_18713)">
<path d="M246 392.5C247.38 392.5 248.5 391.381 248.5 390C248.5 388.619 247.38 387.5 246 387.5C244.619 387.5 243.5 388.619 243.5 390C243.5 391.381 244.619 392.5 246 392.5Z" stroke="#C9C9D1" stroke-width="1.66667" stroke-linecap="round" stroke-linejoin="round"/>
<path d="M252.166 392.5C252.055 392.752 252.022 393.03 252.071 393.301C252.12 393.571 252.249 393.82 252.441 394.017L252.491 394.067C252.646 394.222 252.769 394.405 252.853 394.608C252.937 394.81 252.98 395.027 252.98 395.246C252.98 395.465 252.937 395.682 252.853 395.884C252.769 396.087 252.646 396.27 252.491 396.425C252.336 396.58 252.153 396.703 251.95 396.787C251.748 396.871 251.531 396.914 251.312 396.914C251.093 396.914 250.876 396.871 250.674 396.787C250.471 396.703 250.288 396.58 250.133 396.425L250.083 396.375C249.886 396.183 249.637 396.054 249.367 396.005C249.096 395.956 248.818 395.989 248.566 396.1C248.32 396.206 248.11 396.381 247.961 396.605C247.813 396.828 247.734 397.09 247.733 397.358V397.5C247.733 397.942 247.557 398.366 247.245 398.679C246.932 398.991 246.508 399.167 246.066 399.167C245.624 399.167 245.2 398.991 244.888 398.679C244.575 398.366 244.4 397.942 244.4 397.5V397.425C244.393 397.149 244.304 396.882 244.143 396.657C243.983 396.433 243.758 396.262 243.5 396.167C243.248 396.056 242.969 396.023 242.699 396.072C242.429 396.121 242.179 396.25 241.983 396.442L241.933 396.492C241.778 396.647 241.594 396.77 241.392 396.854C241.19 396.937 240.973 396.981 240.754 396.981C240.535 396.981 240.318 396.937 240.115 396.854C239.913 396.77 239.729 396.647 239.575 396.492C239.42 396.337 239.297 396.153 239.213 395.951C239.129 395.749 239.086 395.532 239.086 395.313C239.086 395.094 239.129 394.877 239.213 394.674C239.297 394.472 239.42 394.288 239.575 394.133L239.625 394.083C239.817 393.887 239.946 393.638 239.995 393.367C240.044 393.097 240.01 392.818 239.9 392.567C239.794 392.32 239.619 392.11 239.395 391.962C239.171 391.814 238.909 391.735 238.641 391.733H238.5C238.058 391.733 237.634 391.558 237.321 391.245C237.008 390.933 236.833 390.509 236.833 390.067C236.833 389.625 237.008 389.201 237.321 388.888C237.634 388.576 238.058 388.4 238.5 388.4H238.575C238.85 388.394 239.118 388.304 239.342 388.144C239.567 387.983 239.738 387.759 239.833 387.5C239.944 387.249 239.977 386.97 239.928 386.7C239.879 386.429 239.75 386.18 239.558 385.983L239.508 385.933C239.353 385.779 239.23 385.595 239.146 385.393C239.062 385.19 239.019 384.973 239.019 384.754C239.019 384.535 239.062 384.318 239.146 384.116C239.23 383.914 239.353 383.73 239.508 383.575C239.663 383.42 239.846 383.297 240.049 383.213C240.251 383.13 240.468 383.086 240.687 383.086C240.906 383.086 241.123 383.13 241.325 383.213C241.528 383.297 241.711 383.42 241.866 383.575L241.916 383.625C242.113 383.817 242.362 383.946 242.632 383.995C242.903 384.044 243.182 384.011 243.433 383.9H243.5C243.746 383.795 243.956 383.619 244.104 383.396C244.252 383.172 244.332 382.91 244.333 382.642V382.5C244.333 382.058 244.508 381.634 244.821 381.322C245.134 381.009 245.558 380.833 246 380.833C246.442 380.833 246.866 381.009 247.178 381.322C247.491 381.634 247.666 382.058 247.666 382.5V382.575C247.667 382.843 247.747 383.105 247.895 383.329C248.043 383.552 248.253 383.728 248.5 383.833C248.751 383.944 249.03 383.978 249.3 383.929C249.57 383.879 249.82 383.751 250.016 383.558L250.066 383.508C250.221 383.354 250.405 383.231 250.607 383.147C250.809 383.063 251.026 383.02 251.245 383.02C251.464 383.02 251.681 383.063 251.884 383.147C252.086 383.231 252.27 383.354 252.425 383.508C252.58 383.663 252.702 383.847 252.786 384.049C252.87 384.252 252.913 384.469 252.913 384.688C252.913 384.907 252.87 385.124 252.786 385.326C252.702 385.528 252.58 385.712 252.425 385.867L252.375 385.917C252.182 386.113 252.054 386.363 252.005 386.633C251.956 386.903 251.989 387.182 252.1 387.433V387.5C252.205 387.747 252.381 387.957 252.604 388.105C252.828 388.253 253.09 388.332 253.358 388.333H253.5C253.942 388.333 254.366 388.509 254.678 388.822C254.991 389.134 255.166 389.558 255.166 390C255.166 390.442 254.991 390.866 254.678 391.179C254.366 391.491 253.942 391.667 253.5 391.667H253.425C253.156 391.668 252.894 391.747 252.671 391.895C252.447 392.043 252.272 392.254 252.166 392.5Z" stroke="#C9C9D1" stroke-width="1.66667" stroke-linecap="round" stroke-linejoin="round"/>
</g>
<g clip-path="url(#clip13_455_18713)">
<path d="M298 398.334C302.602 398.334 306.333 394.603 306.333 390C306.333 385.398 302.602 381.667 298 381.667C293.398 381.667 289.667 385.398 289.667 390C289.667 394.603 293.398 398.334 298 398.334Z" stroke="#C9C9D1" stroke-width="1.66667" stroke-linecap="round" stroke-linejoin="round"/>
<path d="M298 395C300.762 395 303 392.761 303 390C303 387.239 300.762 385 298 385C295.239 385 293 387.239 293 390C293 392.761 295.239 395 298 395Z" stroke="#C9C9D1" stroke-width="1.66667" stroke-linecap="round" stroke-linejoin="round"/>
<path d="M298 391.666C298.92 391.666 299.667 390.92 299.667 390C299.667 389.079 298.92 388.333 298 388.333C297.079 388.333 296.333 389.079 296.333 390C296.333 390.92 297.079 391.666 298 391.666Z" stroke="#C9C9D1" stroke-width="1.66667" stroke-linecap="round" stroke-linejoin="round"/>
</g>
<path d="M346.5 389.167L362.333 381.667L354.833 397.5L353.167 390.834L346.5 389.167Z" stroke="#C9C9D1" stroke-width="1.66667" stroke-linecap="round" stroke-linejoin="round"/>
<path d="M413.333 383.333H415C415.442 383.333 415.866 383.509 416.178 383.821C416.491 384.134 416.666 384.558 416.666 385V396.666C416.666 397.108 416.491 397.532 416.178 397.845C415.866 398.157 415.442 398.333 415 398.333H405C404.558 398.333 404.134 398.157 403.821 397.845C403.509 397.532 403.333 397.108 403.333 396.666V385C403.333 384.558 403.509 384.134 403.821 383.821C404.134 383.509 404.558 383.333 405 383.333H406.666" stroke="#C9C9D1" stroke-width="1.66667" stroke-linecap="round" stroke-linejoin="round"/>
<path d="M412.5 381.667H407.5C407.04 381.667 406.667 382.04 406.667 382.5V384.167C406.667 384.627 407.04 385 407.5 385H412.5C412.96 385 413.333 384.627 413.333 384.167V382.5C413.333 382.04 412.96 381.667 412.5 381.667Z" stroke="#C9C9D1" stroke-width="1.66667" stroke-linecap="round" stroke-linejoin="round"/>
<g clip-path="url(#clip14_455_18713)">
<path d="M81.9995 452.5C83.3802 452.5 84.4995 451.381 84.4995 450C84.4995 448.619 83.3802 447.5 81.9995 447.5C80.6188 447.5 79.4995 448.619 79.4995 450C79.4995 451.381 80.6188 452.5 81.9995 452.5Z" stroke="#C9C9D1" stroke-width="1.66667" stroke-linecap="round" stroke-linejoin="round"/>
<path d="M88.1662 452.5C88.0553 452.752 88.0222 453.03 88.0712 453.301C88.1202 453.571 88.2491 453.82 88.4412 454.017L88.4912 454.067C88.6462 454.222 88.7691 454.405 88.853 454.608C88.9369 454.81 88.98 455.027 88.98 455.246C88.98 455.465 88.9369 455.682 88.853 455.884C88.7691 456.087 88.6462 456.27 88.4912 456.425C88.3364 456.58 88.1526 456.703 87.9503 456.787C87.748 456.871 87.5311 456.914 87.3121 456.914C87.093 456.914 86.8762 456.871 86.6738 456.787C86.4715 456.703 86.2877 456.58 86.1329 456.425L86.0829 456.375C85.8865 456.183 85.637 456.054 85.3667 456.005C85.0964 455.956 84.8176 455.989 84.5662 456.1C84.3197 456.206 84.1095 456.381 83.9615 456.605C83.8134 456.828 83.734 457.09 83.7329 457.358V457.5C83.7329 457.942 83.5573 458.366 83.2447 458.679C82.9322 458.991 82.5082 459.167 82.0662 459.167C81.6242 459.167 81.2003 458.991 80.8877 458.679C80.5751 458.366 80.3996 457.942 80.3996 457.5V457.425C80.3931 457.149 80.3038 456.882 80.1433 456.657C79.9828 456.433 79.7585 456.262 79.4996 456.167C79.2482 456.056 78.9694 456.023 78.6991 456.072C78.4287 456.121 78.1793 456.25 77.9829 456.442L77.9329 456.492C77.7781 456.647 77.5943 456.77 77.392 456.854C77.1896 456.937 76.9727 456.981 76.7537 456.981C76.5347 456.981 76.3178 456.937 76.1155 456.854C75.9132 456.77 75.7293 456.647 75.5746 456.492C75.4196 456.337 75.2967 456.153 75.2128 455.951C75.1289 455.749 75.0857 455.532 75.0857 455.313C75.0857 455.094 75.1289 454.877 75.2128 454.674C75.2967 454.472 75.4196 454.288 75.5746 454.133L75.6246 454.083C75.8167 453.887 75.9455 453.638 75.9946 453.367C76.0436 453.097 76.0105 452.818 75.8996 452.567C75.7939 452.32 75.6185 452.11 75.3949 451.962C75.1714 451.814 74.9094 451.735 74.6412 451.733H74.4996C74.0575 451.733 73.6336 451.558 73.321 451.245C73.0085 450.933 72.8329 450.509 72.8329 450.067C72.8329 449.625 73.0085 449.201 73.321 448.888C73.6336 448.576 74.0575 448.4 74.4996 448.4H74.5746C74.8504 448.394 75.1179 448.304 75.3423 448.144C75.5667 447.983 75.7376 447.759 75.8329 447.5C75.9438 447.249 75.9769 446.97 75.9279 446.7C75.8789 446.429 75.75 446.18 75.5579 445.983L75.5079 445.933C75.3529 445.779 75.23 445.595 75.1461 445.393C75.0622 445.19 75.0191 444.973 75.0191 444.754C75.0191 444.535 75.0622 444.318 75.1461 444.116C75.23 443.914 75.3529 443.73 75.5079 443.575C75.6627 443.42 75.8465 443.297 76.0488 443.213C76.2511 443.13 76.468 443.086 76.6871 443.086C76.9061 443.086 77.123 443.13 77.3253 443.213C77.5276 443.297 77.7114 443.42 77.8662 443.575L77.9162 443.625C78.1126 443.817 78.3621 443.946 78.6324 443.995C78.9027 444.044 79.1815 444.011 79.4329 443.9H79.4996C79.746 443.795 79.9562 443.619 80.1043 443.396C80.2524 443.172 80.3318 442.91 80.3329 442.642V442.5C80.3329 442.058 80.5085 441.634 80.821 441.322C81.1336 441.009 81.5575 440.833 81.9996 440.833C82.4416 440.833 82.8655 441.009 83.1781 441.322C83.4906 441.634 83.6662 442.058 83.6662 442.5V442.575C83.6673 442.843 83.7467 443.105 83.8948 443.329C84.0429 443.552 84.2531 443.728 84.4996 443.833C84.7509 443.944 85.0297 443.978 85.3 443.929C85.5704 443.879 85.8198 443.751 86.0162 443.558L86.0662 443.508C86.221 443.354 86.4048 443.231 86.6072 443.147C86.8095 443.063 87.0264 443.02 87.2454 443.02C87.4644 443.02 87.6813 443.063 87.8836 443.147C88.086 443.231 88.2698 443.354 88.4246 443.508C88.5795 443.663 88.7024 443.847 88.7863 444.049C88.8702 444.252 88.9134 444.469 88.9134 444.688C88.9134 444.907 88.8702 445.124 88.7863 445.326C88.7024 445.528 88.5795 445.712 88.4246 445.867L88.3746 445.917C88.1824 446.113 88.0536 446.363 88.0046 446.633C87.9555 446.903 87.9886 447.182 88.0996 447.433V447.5C88.2052 447.747 88.3806 447.957 88.6042 448.105C88.8277 448.253 89.0897 448.332 89.3579 448.333H89.4996C89.9416 448.333 90.3655 448.509 90.6781 448.822C90.9906 449.134 91.1662 449.558 91.1662 450C91.1662 450.442 90.9906 450.866 90.6781 451.179C90.3655 451.491 89.9416 451.667 89.4996 451.667H89.4246C89.1564 451.668 88.8944 451.747 88.6708 451.895C88.4473 452.043 88.2719 452.254 88.1662 452.5Z" stroke="#C9C9D1" stroke-width="1.66667" stroke-linecap="round" stroke-linejoin="round"/>
</g>
<g clip-path="url(#clip15_455_18713)">
<path d="M134 458.334C138.602 458.334 142.333 454.603 142.333 450C142.333 445.398 138.602 441.667 134 441.667C129.398 441.667 125.667 445.398 125.667 450C125.667 454.603 129.398 458.334 134 458.334Z" stroke="#C9C9D1" stroke-width="1.66667" stroke-linecap="round" stroke-linejoin="round"/>
<path d="M134 455C136.762 455 139 452.761 139 450C139 447.239 136.762 445 134 445C131.239 445 129 447.239 129 450C129 452.761 131.239 455 134 455Z" stroke="#C9C9D1" stroke-width="1.66667" stroke-linecap="round" stroke-linejoin="round"/>
<path d="M134 451.666C134.92 451.666 135.667 450.92 135.667 450C135.667 449.079 134.92 448.333 134 448.333C133.079 448.333 132.333 449.079 132.333 450C132.333 450.92 133.079 451.666 134 451.666Z" stroke="#C9C9D1" stroke-width="1.66667" stroke-linecap="round" stroke-linejoin="round"/>
</g>
<path d="M182.5 449.167L198.333 441.667L190.833 457.5L189.167 450.834L182.5 449.167Z" stroke="#C9C9D1" stroke-width="1.66667" stroke-linecap="round" stroke-linejoin="round"/>
<path d="M249.333 443.333H251C251.442 443.333 251.866 443.509 252.178 443.821C252.491 444.134 252.666 444.558 252.666 445V456.666C252.666 457.108 252.491 457.532 252.178 457.845C251.866 458.157 251.442 458.333 251 458.333H241C240.558 458.333 240.134 458.157 239.821 457.845C239.509 457.532 239.333 457.108 239.333 456.666V445C239.333 444.558 239.509 444.134 239.821 443.821C240.134 443.509 240.558 443.333 241 443.333H242.666" stroke="#C9C9D1" stroke-width="1.66667" stroke-linecap="round" stroke-linejoin="round"/>
<path d="M248.5 441.667H243.5C243.04 441.667 242.667 442.04 242.667 442.5V444.167C242.667 444.627 243.04 445 243.5 445H248.5C248.96 445 249.333 444.627 249.333 444.167V442.5C249.333 442.04 248.96 441.667 248.5 441.667Z" stroke="#C9C9D1" stroke-width="1.66667" stroke-linecap="round" stroke-linejoin="round"/>
<path d="M304.667 457.5V455.833C304.667 454.949 304.315 454.101 303.69 453.476C303.065 452.851 302.217 452.5 301.333 452.5H294.667C293.783 452.5 292.935 452.851 292.31 453.476C291.684 454.101 291.333 454.949 291.333 455.833V457.5" stroke="#C9C9D1" stroke-width="1.66667" stroke-linecap="round" stroke-linejoin="round"/>
<path d="M298 449.167C299.841 449.167 301.333 447.674 301.333 445.833C301.333 443.992 299.841 442.5 298 442.5C296.159 442.5 294.667 443.992 294.667 445.833C294.667 447.674 296.159 449.167 298 449.167Z" stroke="#C9C9D1" stroke-width="1.66667" stroke-linecap="round" stroke-linejoin="round"/>
<g clip-path="url(#clip16_455_18713)">
<path d="M354.084 458.502C358.733 458.502 362.502 454.733 362.502 450.084C362.502 445.435 358.733 441.667 354.084 441.667C349.435 441.667 345.667 445.435 345.667 450.084C345.667 454.733 349.435 458.502 354.084 458.502Z" stroke="#C9C9D1" stroke-width="1.66667" stroke-linecap="round" stroke-linejoin="round"/>
<path d="M357.653 446.516L355.869 451.869L350.515 453.654L352.3 448.3L357.653 446.516Z" stroke="#C9C9D1" stroke-width="1.66667" stroke-linecap="round" stroke-linejoin="round"/>
</g>
<g clip-path="url(#clip17_455_18713)">
<path d="M410 452.5C411.38 452.5 412.5 451.381 412.5 450C412.5 448.619 411.38 447.5 410 447.5C408.619 447.5 407.5 448.619 407.5 450C407.5 451.381 408.619 452.5 410 452.5Z" stroke="#C9C9D1" stroke-width="1.66667" stroke-linecap="round" stroke-linejoin="round"/>
<path d="M416.166 452.5C416.055 452.752 416.022 453.03 416.071 453.301C416.12 453.571 416.249 453.82 416.441 454.017L416.491 454.067C416.646 454.222 416.769 454.405 416.853 454.608C416.937 454.81 416.98 455.027 416.98 455.246C416.98 455.465 416.937 455.682 416.853 455.884C416.769 456.087 416.646 456.27 416.491 456.425C416.336 456.58 416.153 456.703 415.95 456.787C415.748 456.871 415.531 456.914 415.312 456.914C415.093 456.914 414.876 456.871 414.674 456.787C414.471 456.703 414.288 456.58 414.133 456.425L414.083 456.375C413.886 456.183 413.637 456.054 413.367 456.005C413.096 455.956 412.818 455.989 412.566 456.1C412.32 456.206 412.11 456.381 411.961 456.605C411.813 456.828 411.734 457.09 411.733 457.358V457.5C411.733 457.942 411.557 458.366 411.245 458.679C410.932 458.991 410.508 459.167 410.066 459.167C409.624 459.167 409.2 458.991 408.888 458.679C408.575 458.366 408.4 457.942 408.4 457.5V457.425C408.393 457.149 408.304 456.882 408.143 456.657C407.983 456.433 407.758 456.262 407.5 456.167C407.248 456.056 406.969 456.023 406.699 456.072C406.429 456.121 406.179 456.25 405.983 456.442L405.933 456.492C405.778 456.647 405.594 456.77 405.392 456.854C405.19 456.937 404.973 456.981 404.754 456.981C404.535 456.981 404.318 456.937 404.115 456.854C403.913 456.77 403.729 456.647 403.575 456.492C403.42 456.337 403.297 456.153 403.213 455.951C403.129 455.749 403.086 455.532 403.086 455.313C403.086 455.094 403.129 454.877 403.213 454.674C403.297 454.472 403.42 454.288 403.575 454.133L403.625 454.083C403.817 453.887 403.946 453.638 403.995 453.367C404.044 453.097 404.01 452.818 403.9 452.567C403.794 452.32 403.619 452.11 403.395 451.962C403.171 451.814 402.909 451.735 402.641 451.733H402.5C402.058 451.733 401.634 451.558 401.321 451.245C401.008 450.933 400.833 450.509 400.833 450.067C400.833 449.625 401.008 449.201 401.321 448.888C401.634 448.576 402.058 448.4 402.5 448.4H402.575C402.85 448.394 403.118 448.304 403.342 448.144C403.567 447.983 403.738 447.759 403.833 447.5C403.944 447.249 403.977 446.97 403.928 446.7C403.879 446.429 403.75 446.18 403.558 445.983L403.508 445.933C403.353 445.779 403.23 445.595 403.146 445.393C403.062 445.19 403.019 444.973 403.019 444.754C403.019 444.535 403.062 444.318 403.146 444.116C403.23 443.914 403.353 443.73 403.508 443.575C403.663 443.42 403.846 443.297 404.049 443.213C404.251 443.13 404.468 443.086 404.687 443.086C404.906 443.086 405.123 443.13 405.325 443.213C405.528 443.297 405.711 443.42 405.866 443.575L405.916 443.625C406.113 443.817 406.362 443.946 406.632 443.995C406.903 444.044 407.182 444.011 407.433 443.9H407.5C407.746 443.795 407.956 443.619 408.104 443.396C408.252 443.172 408.332 442.91 408.333 442.642V442.5C408.333 442.058 408.508 441.634 408.821 441.322C409.134 441.009 409.558 440.833 410 440.833C410.442 440.833 410.866 441.009 411.178 441.322C411.491 441.634 411.666 442.058 411.666 442.5V442.575C411.667 442.843 411.747 443.105 411.895 443.329C412.043 443.552 412.253 443.728 412.5 443.833C412.751 443.944 413.03 443.978 413.3 443.929C413.57 443.879 413.82 443.751 414.016 443.558L414.066 443.508C414.221 443.354 414.405 443.231 414.607 443.147C414.809 443.063 415.026 443.02 415.245 443.02C415.464 443.02 415.681 443.063 415.884 443.147C416.086 443.231 416.27 443.354 416.425 443.508C416.58 443.663 416.702 443.847 416.786 444.049C416.87 444.252 416.913 444.469 416.913 444.688C416.913 444.907 416.87 445.124 416.786 445.326C416.702 445.528 416.58 445.712 416.425 445.867L416.375 445.917C416.182 446.113 416.054 446.363 416.005 446.633C415.956 446.903 415.989 447.182 416.1 447.433V447.5C416.205 447.747 416.381 447.957 416.604 448.105C416.828 448.253 417.09 448.332 417.358 448.333H417.5C417.942 448.333 418.366 448.509 418.678 448.822C418.991 449.134 419.166 449.558 419.166 450C419.166 450.442 418.991 450.866 418.678 451.179C418.366 451.491 417.942 451.667 417.5 451.667H417.425C417.156 451.668 416.894 451.747 416.671 451.895C416.447 452.043 416.272 452.254 416.166 452.5Z" stroke="#C9C9D1" stroke-width="1.66667" stroke-linecap="round" stroke-linejoin="round"/>
</g>
<path d="M18.5 509.167L34.3333 501.667L26.8333 517.5L25.1667 510.834L18.5 509.167Z" stroke="#C9C9D1" stroke-width="1.66667" stroke-linecap="round" stroke-linejoin="round"/>
<path d="M85.3331 503.333H86.9998C87.4418 503.333 87.8657 503.509 88.1783 503.821C88.4909 504.134 88.6665 504.558 88.6665 505V516.666C88.6665 517.108 88.4909 517.532 88.1783 517.845C87.8657 518.157 87.4418 518.333 86.9998 518.333H76.9998C76.5578 518.333 76.1338 518.157 75.8213 517.845C75.5087 517.532 75.3331 517.108 75.3331 516.666V505C75.3331 504.558 75.5087 504.134 75.8213 503.821C76.1338 503.509 76.5578 503.333 76.9998 503.333H78.6665" stroke="#C9C9D1" stroke-width="1.66667" stroke-linecap="round" stroke-linejoin="round"/>
<path d="M84.5 501.667H79.5C79.0397 501.667 78.6666 502.04 78.6666 502.5V504.167C78.6666 504.627 79.0397 505 79.5 505H84.5C84.9602 505 85.3333 504.627 85.3333 504.167V502.5C85.3333 502.04 84.9602 501.667 84.5 501.667Z" stroke="#C9C9D1" stroke-width="1.66667" stroke-linecap="round" stroke-linejoin="round"/>
<path d="M140.667 517.5V515.833C140.667 514.949 140.315 514.101 139.69 513.476C139.065 512.851 138.217 512.5 137.333 512.5H130.667C129.783 512.5 128.935 512.851 128.31 513.476C127.684 514.101 127.333 514.949 127.333 515.833V517.5" stroke="#C9C9D1" stroke-width="1.66667" stroke-linecap="round" stroke-linejoin="round"/>
<path d="M134 509.167C135.841 509.167 137.333 507.674 137.333 505.833C137.333 503.992 135.841 502.5 134 502.5C132.159 502.5 130.667 503.992 130.667 505.833C130.667 507.674 132.159 509.167 134 509.167Z" stroke="#C9C9D1" stroke-width="1.66667" stroke-linecap="round" stroke-linejoin="round"/>
<g clip-path="url(#clip18_455_18713)">
<path d="M190.084 518.502C194.733 518.502 198.502 514.733 198.502 510.084C198.502 505.435 194.733 501.667 190.084 501.667C185.435 501.667 181.667 505.435 181.667 510.084C181.667 514.733 185.435 518.502 190.084 518.502Z" stroke="#C9C9D1" stroke-width="1.66667" stroke-linecap="round" stroke-linejoin="round"/>
<path d="M193.653 506.516L191.869 511.869L186.515 513.654L188.3 508.3L193.653 506.516Z" stroke="#C9C9D1" stroke-width="1.66667" stroke-linecap="round" stroke-linejoin="round"/>
</g>
<g clip-path="url(#clip19_455_18713)">
<path d="M246 512.5C247.38 512.5 248.5 511.381 248.5 510C248.5 508.619 247.38 507.5 246 507.5C244.619 507.5 243.5 508.619 243.5 510C243.5 511.381 244.619 512.5 246 512.5Z" stroke="#C9C9D1" stroke-width="1.66667" stroke-linecap="round" stroke-linejoin="round"/>
<path d="M252.166 512.5C252.055 512.752 252.022 513.03 252.071 513.301C252.12 513.571 252.249 513.82 252.441 514.017L252.491 514.067C252.646 514.222 252.769 514.405 252.853 514.608C252.937 514.81 252.98 515.027 252.98 515.246C252.98 515.465 252.937 515.682 252.853 515.884C252.769 516.087 252.646 516.27 252.491 516.425C252.336 516.58 252.153 516.703 251.95 516.787C251.748 516.871 251.531 516.914 251.312 516.914C251.093 516.914 250.876 516.871 250.674 516.787C250.471 516.703 250.288 516.58 250.133 516.425L250.083 516.375C249.886 516.183 249.637 516.054 249.367 516.005C249.096 515.956 248.818 515.989 248.566 516.1C248.32 516.206 248.11 516.381 247.961 516.605C247.813 516.828 247.734 517.09 247.733 517.358V517.5C247.733 517.942 247.557 518.366 247.245 518.679C246.932 518.991 246.508 519.167 246.066 519.167C245.624 519.167 245.2 518.991 244.888 518.679C244.575 518.366 244.4 517.942 244.4 517.5V517.425C244.393 517.149 244.304 516.882 244.143 516.657C243.983 516.433 243.758 516.262 243.5 516.167C243.248 516.056 242.969 516.023 242.699 516.072C242.429 516.121 242.179 516.25 241.983 516.442L241.933 516.492C241.778 516.647 241.594 516.77 241.392 516.854C241.19 516.937 240.973 516.981 240.754 516.981C240.535 516.981 240.318 516.937 240.115 516.854C239.913 516.77 239.729 516.647 239.575 516.492C239.42 516.337 239.297 516.153 239.213 515.951C239.129 515.749 239.086 515.532 239.086 515.313C239.086 515.094 239.129 514.877 239.213 514.674C239.297 514.472 239.42 514.288 239.575 514.133L239.625 514.083C239.817 513.887 239.946 513.638 239.995 513.367C240.044 513.097 240.01 512.818 239.9 512.567C239.794 512.32 239.619 512.11 239.395 511.962C239.171 511.814 238.909 511.735 238.641 511.733H238.5C238.058 511.733 237.634 511.558 237.321 511.245C237.008 510.933 236.833 510.509 236.833 510.067C236.833 509.625 237.008 509.201 237.321 508.888C237.634 508.576 238.058 508.4 238.5 508.4H238.575C238.85 508.394 239.118 508.304 239.342 508.144C239.567 507.983 239.738 507.759 239.833 507.5C239.944 507.249 239.977 506.97 239.928 506.7C239.879 506.429 239.75 506.18 239.558 505.983L239.508 505.933C239.353 505.779 239.23 505.595 239.146 505.393C239.062 505.19 239.019 504.973 239.019 504.754C239.019 504.535 239.062 504.318 239.146 504.116C239.23 503.914 239.353 503.73 239.508 503.575C239.663 503.42 239.846 503.297 240.049 503.213C240.251 503.13 240.468 503.086 240.687 503.086C240.906 503.086 241.123 503.13 241.325 503.213C241.528 503.297 241.711 503.42 241.866 503.575L241.916 503.625C242.113 503.817 242.362 503.946 242.632 503.995C242.903 504.044 243.182 504.011 243.433 503.9H243.5C243.746 503.795 243.956 503.619 244.104 503.396C244.252 503.172 244.332 502.91 244.333 502.642V502.5C244.333 502.058 244.508 501.634 244.821 501.322C245.134 501.009 245.558 500.833 246 500.833C246.442 500.833 246.866 501.009 247.178 501.322C247.491 501.634 247.666 502.058 247.666 502.5V502.575C247.667 502.843 247.747 503.105 247.895 503.329C248.043 503.552 248.253 503.728 248.5 503.833C248.751 503.944 249.03 503.978 249.3 503.929C249.57 503.879 249.82 503.751 250.016 503.558L250.066 503.508C250.221 503.354 250.405 503.231 250.607 503.147C250.809 503.063 251.026 503.02 251.245 503.02C251.464 503.02 251.681 503.063 251.884 503.147C252.086 503.231 252.27 503.354 252.425 503.508C252.58 503.663 252.702 503.847 252.786 504.049C252.87 504.252 252.913 504.469 252.913 504.688C252.913 504.907 252.87 505.124 252.786 505.326C252.702 505.528 252.58 505.712 252.425 505.867L252.375 505.917C252.182 506.113 252.054 506.363 252.005 506.633C251.956 506.903 251.989 507.182 252.1 507.433V507.5C252.205 507.747 252.381 507.957 252.604 508.105C252.828 508.253 253.09 508.332 253.358 508.333H253.5C253.942 508.333 254.366 508.509 254.678 508.822C254.991 509.134 255.166 509.558 255.166 510C255.166 510.442 254.991 510.866 254.678 511.179C254.366 511.491 253.942 511.667 253.5 511.667H253.425C253.156 511.668 252.894 511.747 252.671 511.895C252.447 512.043 252.272 512.254 252.166 512.5Z" stroke="#C9C9D1" stroke-width="1.66667" stroke-linecap="round" stroke-linejoin="round"/>
</g>
<g clip-path="url(#clip20_455_18713)">
<path d="M298 518.334C302.602 518.334 306.333 514.603 306.333 510C306.333 505.398 302.602 501.667 298 501.667C293.398 501.667 289.667 505.398 289.667 510C289.667 514.603 293.398 518.334 298 518.334Z" stroke="#C9C9D1" stroke-width="1.66667" stroke-linecap="round" stroke-linejoin="round"/>
<path d="M298 515C300.762 515 303 512.761 303 510C303 507.239 300.762 505 298 505C295.239 505 293 507.239 293 510C293 512.761 295.239 515 298 515Z" stroke="#C9C9D1" stroke-width="1.66667" stroke-linecap="round" stroke-linejoin="round"/>
<path d="M298 511.666C298.92 511.666 299.667 510.92 299.667 510C299.667 509.079 298.92 508.333 298 508.333C297.079 508.333 296.333 509.079 296.333 510C296.333 510.92 297.079 511.666 298 511.666Z" stroke="#C9C9D1" stroke-width="1.66667" stroke-linecap="round" stroke-linejoin="round"/>
</g>
<path d="M346.5 509.167L362.333 501.667L354.833 517.5L353.167 510.834L346.5 509.167Z" stroke="#C9C9D1" stroke-width="1.66667" stroke-linecap="round" stroke-linejoin="round"/>
<path d="M413.333 503.333H415C415.442 503.333 415.866 503.509 416.178 503.821C416.491 504.134 416.666 504.558 416.666 505V516.666C416.666 517.108 416.491 517.532 416.178 517.845C415.866 518.157 415.442 518.333 415 518.333H405C404.558 518.333 404.134 518.157 403.821 517.845C403.509 517.532 403.333 517.108 403.333 516.666V505C403.333 504.558 403.509 504.134 403.821 503.821C404.134 503.509 404.558 503.333 405 503.333H406.666" stroke="#C9C9D1" stroke-width="1.66667" stroke-linecap="round" stroke-linejoin="round"/>
<path d="M412.5 501.667H407.5C407.04 501.667 406.667 502.04 406.667 502.5V504.167C406.667 504.627 407.04 505 407.5 505H412.5C412.96 505 413.333 504.627 413.333 504.167V502.5C413.333 502.04 412.96 501.667 412.5 501.667Z" stroke="#C9C9D1" stroke-width="1.66667" stroke-linecap="round" stroke-linejoin="round"/>
<g clip-path="url(#clip21_455_18713)">
<path d="M134 578.334C138.602 578.334 142.333 574.603 142.333 570C142.333 565.398 138.602 561.667 134 561.667C129.398 561.667 125.667 565.398 125.667 570C125.667 574.603 129.398 578.334 134 578.334Z" stroke="#C9C9D1" stroke-width="1.66667" stroke-linecap="round" stroke-linejoin="round"/>
<path d="M134 575C136.762 575 139 572.761 139 570C139 567.239 136.762 565 134 565C131.239 565 129 567.239 129 570C129 572.761 131.239 575 134 575Z" stroke="#C9C9D1" stroke-width="1.66667" stroke-linecap="round" stroke-linejoin="round"/>
<path d="M134 571.666C134.92 571.666 135.667 570.92 135.667 570C135.667 569.079 134.92 568.333 134 568.333C133.079 568.333 132.333 569.079 132.333 570C132.333 570.92 133.079 571.666 134 571.666Z" stroke="#C9C9D1" stroke-width="1.66667" stroke-linecap="round" stroke-linejoin="round"/>
</g>
<path d="M182.5 569.167L198.333 561.667L190.833 577.5L189.167 570.834L182.5 569.167Z" stroke="#C9C9D1" stroke-width="1.66667" stroke-linecap="round" stroke-linejoin="round"/>
<path d="M249.333 563.333H251C251.442 563.333 251.866 563.509 252.178 563.821C252.491 564.134 252.666 564.558 252.666 565V576.666C252.666 577.108 252.491 577.532 252.178 577.845C251.866 578.157 251.442 578.333 251 578.333H241C240.558 578.333 240.134 578.157 239.821 577.845C239.509 577.532 239.333 577.108 239.333 576.666V565C239.333 564.558 239.509 564.134 239.821 563.821C240.134 563.509 240.558 563.333 241 563.333H242.666" stroke="#C9C9D1" stroke-width="1.66667" stroke-linecap="round" stroke-linejoin="round"/>
<path d="M248.5 561.667H243.5C243.04 561.667 242.667 562.04 242.667 562.5V564.167C242.667 564.627 243.04 565 243.5 565H248.5C248.96 565 249.333 564.627 249.333 564.167V562.5C249.333 562.04 248.96 561.667 248.5 561.667Z" stroke="#C9C9D1" stroke-width="1.66667" stroke-linecap="round" stroke-linejoin="round"/>
<path d="M304.667 577.5V575.833C304.667 574.949 304.315 574.101 303.69 573.476C303.065 572.851 302.217 572.5 301.333 572.5H294.667C293.783 572.5 292.935 572.851 292.31 573.476C291.684 574.101 291.333 574.949 291.333 575.833V577.5" stroke="#C9C9D1" stroke-width="1.66667" stroke-linecap="round" stroke-linejoin="round"/>
<path d="M298 569.167C299.841 569.167 301.333 567.674 301.333 565.833C301.333 563.992 299.841 562.5 298 562.5C296.159 562.5 294.667 563.992 294.667 565.833C294.667 567.674 296.159 569.167 298 569.167Z" stroke="#C9C9D1" stroke-width="1.66667" stroke-linecap="round" stroke-linejoin="round"/>
<g clip-path="url(#clip22_455_18713)">
<path d="M354.084 578.502C358.733 578.502 362.502 574.733 362.502 570.084C362.502 565.435 358.733 561.667 354.084 561.667C349.435 561.667 345.667 565.435 345.667 570.084C345.667 574.733 349.435 578.502 354.084 578.502Z" stroke="#C9C9D1" stroke-width="1.66667" stroke-linecap="round" stroke-linejoin="round"/>
<path d="M357.653 566.516L355.869 571.869L350.515 573.654L352.3 568.3L357.653 566.516Z" stroke="#C9C9D1" stroke-width="1.66667" stroke-linecap="round" stroke-linejoin="round"/>
</g>
<g clip-path="url(#clip23_455_18713)">
<path d="M410 572.5C411.38 572.5 412.5 571.381 412.5 570C412.5 568.619 411.38 567.5 410 567.5C408.619 567.5 407.5 568.619 407.5 570C407.5 571.381 408.619 572.5 410 572.5Z" stroke="#C9C9D1" stroke-width="1.66667" stroke-linecap="round" stroke-linejoin="round"/>
<path d="M416.166 572.5C416.055 572.752 416.022 573.03 416.071 573.301C416.12 573.571 416.249 573.82 416.441 574.017L416.491 574.067C416.646 574.222 416.769 574.405 416.853 574.608C416.937 574.81 416.98 575.027 416.98 575.246C416.98 575.465 416.937 575.682 416.853 575.884C416.769 576.087 416.646 576.27 416.491 576.425C416.336 576.58 416.153 576.703 415.95 576.787C415.748 576.871 415.531 576.914 415.312 576.914C415.093 576.914 414.876 576.871 414.674 576.787C414.471 576.703 414.288 576.58 414.133 576.425L414.083 576.375C413.886 576.183 413.637 576.054 413.367 576.005C413.096 575.956 412.818 575.989 412.566 576.1C412.32 576.206 412.11 576.381 411.961 576.605C411.813 576.828 411.734 577.09 411.733 577.358V577.5C411.733 577.942 411.557 578.366 411.245 578.679C410.932 578.991 410.508 579.167 410.066 579.167C409.624 579.167 409.2 578.991 408.888 578.679C408.575 578.366 408.4 577.942 408.4 577.5V577.425C408.393 577.149 408.304 576.882 408.143 576.657C407.983 576.433 407.758 576.262 407.5 576.167C407.248 576.056 406.969 576.023 406.699 576.072C406.429 576.121 406.179 576.25 405.983 576.442L405.933 576.492C405.778 576.647 405.594 576.77 405.392 576.854C405.19 576.937 404.973 576.981 404.754 576.981C404.535 576.981 404.318 576.937 404.115 576.854C403.913 576.77 403.729 576.647 403.575 576.492C403.42 576.337 403.297 576.153 403.213 575.951C403.129 575.749 403.086 575.532 403.086 575.313C403.086 575.094 403.129 574.877 403.213 574.674C403.297 574.472 403.42 574.288 403.575 574.133L403.625 574.083C403.817 573.887 403.946 573.638 403.995 573.367C404.044 573.097 404.01 572.818 403.9 572.567C403.794 572.32 403.619 572.11 403.395 571.962C403.171 571.814 402.909 571.735 402.641 571.733H402.5C402.058 571.733 401.634 571.558 401.321 571.245C401.008 570.933 400.833 570.509 400.833 570.067C400.833 569.625 401.008 569.201 401.321 568.888C401.634 568.576 402.058 568.4 402.5 568.4H402.575C402.85 568.394 403.118 568.304 403.342 568.144C403.567 567.983 403.738 567.759 403.833 567.5C403.944 567.249 403.977 566.97 403.928 566.7C403.879 566.429 403.75 566.18 403.558 565.983L403.508 565.933C403.353 565.779 403.23 565.595 403.146 565.393C403.062 565.19 403.019 564.973 403.019 564.754C403.019 564.535 403.062 564.318 403.146 564.116C403.23 563.914 403.353 563.73 403.508 563.575C403.663 563.42 403.846 563.297 404.049 563.213C404.251 563.13 404.468 563.086 404.687 563.086C404.906 563.086 405.123 563.13 405.325 563.213C405.528 563.297 405.711 563.42 405.866 563.575L405.916 563.625C406.113 563.817 406.362 563.946 406.632 563.995C406.903 564.044 407.182 564.011 407.433 563.9H407.5C407.746 563.795 407.956 563.619 408.104 563.396C408.252 563.172 408.332 562.91 408.333 562.642V562.5C408.333 562.058 408.508 561.634 408.821 561.322C409.134 561.009 409.558 560.833 410 560.833C410.442 560.833 410.866 561.009 411.178 561.322C411.491 561.634 411.666 562.058 411.666 562.5V562.575C411.667 562.843 411.747 563.105 411.895 563.329C412.043 563.552 412.253 563.728 412.5 563.833C412.751 563.944 413.03 563.978 413.3 563.929C413.57 563.879 413.82 563.751 414.016 563.558L414.066 563.508C414.221 563.354 414.405 563.231 414.607 563.147C414.809 563.063 415.026 563.02 415.245 563.02C415.464 563.02 415.681 563.063 415.884 563.147C416.086 563.231 416.27 563.354 416.425 563.508C416.58 563.663 416.702 563.847 416.786 564.049C416.87 564.252 416.913 564.469 416.913 564.688C416.913 564.907 416.87 565.124 416.786 565.326C416.702 565.528 416.58 565.712 416.425 565.867L416.375 565.917C416.182 566.113 416.054 566.363 416.005 566.633C415.956 566.903 415.989 567.182 416.1 567.433V567.5C416.205 567.747 416.381 567.957 416.604 568.105C416.828 568.253 417.09 568.332 417.358 568.333H417.5C417.942 568.333 418.366 568.509 418.678 568.822C418.991 569.134 419.166 569.558 419.166 570C419.166 570.442 418.991 570.866 418.678 571.179C418.366 571.491 417.942 571.667 417.5 571.667H417.425C417.156 571.668 416.894 571.747 416.671 571.895C416.447 572.043 416.272 572.254 416.166 572.5Z" stroke="#C9C9D1" stroke-width="1.66667" stroke-linecap="round" stroke-linejoin="round"/>
</g>
<path d="M140.667 637.5V635.833C140.667 634.949 140.315 634.101 139.69 633.476C139.065 632.851 138.217 632.5 137.333 632.5H130.667C129.783 632.5 128.935 632.851 128.31 633.476C127.684 634.101 127.333 634.949 127.333 635.833V637.5" stroke="#C9C9D1" stroke-width="1.66667" stroke-linecap="round" stroke-linejoin="round"/>
<path d="M134 629.167C135.841 629.167 137.333 627.674 137.333 625.833C137.333 623.992 135.841 622.5 134 622.5C132.159 622.5 130.667 623.992 130.667 625.833C130.667 627.674 132.159 629.167 134 629.167Z" stroke="#C9C9D1" stroke-width="1.66667" stroke-linecap="round" stroke-linejoin="round"/>
<g clip-path="url(#clip24_455_18713)">
<path d="M190.084 638.502C194.733 638.502 198.502 634.733 198.502 630.084C198.502 625.435 194.733 621.667 190.084 621.667C185.435 621.667 181.667 625.435 181.667 630.084C181.667 634.733 185.435 638.502 190.084 638.502Z" stroke="#C9C9D1" stroke-width="1.66667" stroke-linecap="round" stroke-linejoin="round"/>
<path d="M193.653 626.516L191.869 631.869L186.515 633.654L188.3 628.3L193.653 626.516Z" stroke="#C9C9D1" stroke-width="1.66667" stroke-linecap="round" stroke-linejoin="round"/>
</g>
<g clip-path="url(#clip25_455_18713)">
<path d="M246 632.5C247.38 632.5 248.5 631.381 248.5 630C248.5 628.619 247.38 627.5 246 627.5C244.619 627.5 243.5 628.619 243.5 630C243.5 631.381 244.619 632.5 246 632.5Z" stroke="#C9C9D1" stroke-width="1.66667" stroke-linecap="round" stroke-linejoin="round"/>
<path d="M252.166 632.5C252.055 632.752 252.022 633.03 252.071 633.301C252.12 633.571 252.249 633.82 252.441 634.017L252.491 634.067C252.646 634.222 252.769 634.405 252.853 634.608C252.937 634.81 252.98 635.027 252.98 635.246C252.98 635.465 252.937 635.682 252.853 635.884C252.769 636.087 252.646 636.27 252.491 636.425C252.336 636.58 252.153 636.703 251.95 636.787C251.748 636.871 251.531 636.914 251.312 636.914C251.093 636.914 250.876 636.871 250.674 636.787C250.471 636.703 250.288 636.58 250.133 636.425L250.083 636.375C249.886 636.183 249.637 636.054 249.367 636.005C249.096 635.956 248.818 635.989 248.566 636.1C248.32 636.206 248.11 636.381 247.961 636.605C247.813 636.828 247.734 637.09 247.733 637.358V637.5C247.733 637.942 247.557 638.366 247.245 638.679C246.932 638.991 246.508 639.167 246.066 639.167C245.624 639.167 245.2 638.991 244.888 638.679C244.575 638.366 244.4 637.942 244.4 637.5V637.425C244.393 637.149 244.304 636.882 244.143 636.657C243.983 636.433 243.758 636.262 243.5 636.167C243.248 636.056 242.969 636.023 242.699 636.072C242.429 636.121 242.179 636.25 241.983 636.442L241.933 636.492C241.778 636.647 241.594 636.77 241.392 636.854C241.19 636.937 240.973 636.981 240.754 636.981C240.535 636.981 240.318 636.937 240.115 636.854C239.913 636.77 239.729 636.647 239.575 636.492C239.42 636.337 239.297 636.153 239.213 635.951C239.129 635.749 239.086 635.532 239.086 635.313C239.086 635.094 239.129 634.877 239.213 634.674C239.297 634.472 239.42 634.288 239.575 634.133L239.625 634.083C239.817 633.887 239.946 633.638 239.995 633.367C240.044 633.097 240.01 632.818 239.9 632.567C239.794 632.32 239.619 632.11 239.395 631.962C239.171 631.814 238.909 631.735 238.641 631.733H238.5C238.058 631.733 237.634 631.558 237.321 631.245C237.008 630.933 236.833 630.509 236.833 630.067C236.833 629.625 237.008 629.201 237.321 628.888C237.634 628.576 238.058 628.4 238.5 628.4H238.575C238.85 628.394 239.118 628.304 239.342 628.144C239.567 627.983 239.738 627.759 239.833 627.5C239.944 627.249 239.977 626.97 239.928 626.7C239.879 626.429 239.75 626.18 239.558 625.983L239.508 625.933C239.353 625.779 239.23 625.595 239.146 625.393C239.062 625.19 239.019 624.973 239.019 624.754C239.019 624.535 239.062 624.318 239.146 624.116C239.23 623.914 239.353 623.73 239.508 623.575C239.663 623.42 239.846 623.297 240.049 623.213C240.251 623.13 240.468 623.086 240.687 623.086C240.906 623.086 241.123 623.13 241.325 623.213C241.528 623.297 241.711 623.42 241.866 623.575L241.916 623.625C242.113 623.817 242.362 623.946 242.632 623.995C242.903 624.044 243.182 624.011 243.433 623.9H243.5C243.746 623.795 243.956 623.619 244.104 623.396C244.252 623.172 244.332 622.91 244.333 622.642V622.5C244.333 622.058 244.508 621.634 244.821 621.322C245.134 621.009 245.558 620.833 246 620.833C246.442 620.833 246.866 621.009 247.178 621.322C247.491 621.634 247.666 622.058 247.666 622.5V622.575C247.667 622.843 247.747 623.105 247.895 623.329C248.043 623.552 248.253 623.728 248.5 623.833C248.751 623.944 249.03 623.978 249.3 623.929C249.57 623.879 249.82 623.751 250.016 623.558L250.066 623.508C250.221 623.354 250.405 623.231 250.607 623.147C250.809 623.063 251.026 623.02 251.245 623.02C251.464 623.02 251.681 623.063 251.884 623.147C252.086 623.231 252.27 623.354 252.425 623.508C252.58 623.663 252.702 623.847 252.786 624.049C252.87 624.252 252.913 624.469 252.913 624.688C252.913 624.907 252.87 625.124 252.786 625.326C252.702 625.528 252.58 625.712 252.425 625.867L252.375 625.917C252.182 626.113 252.054 626.363 252.005 626.633C251.956 626.903 251.989 627.182 252.1 627.433V627.5C252.205 627.747 252.381 627.957 252.604 628.105C252.828 628.253 253.09 628.332 253.358 628.333H253.5C253.942 628.333 254.366 628.509 254.678 628.822C254.991 629.134 255.166 629.558 255.166 630C255.166 630.442 254.991 630.866 254.678 631.179C254.366 631.491 253.942 631.667 253.5 631.667H253.425C253.156 631.668 252.894 631.747 252.671 631.895C252.447 632.043 252.272 632.254 252.166 632.5Z" stroke="#C9C9D1" stroke-width="1.66667" stroke-linecap="round" stroke-linejoin="round"/>
</g>
<g clip-path="url(#clip26_455_18713)">
<path d="M298 638.334C302.602 638.334 306.333 634.603 306.333 630C306.333 625.398 302.602 621.667 298 621.667C293.398 621.667 289.667 625.398 289.667 630C289.667 634.603 293.398 638.334 298 638.334Z" stroke="#C9C9D1" stroke-width="1.66667" stroke-linecap="round" stroke-linejoin="round"/>
<path d="M298 635C300.762 635 303 632.761 303 630C303 627.239 300.762 625 298 625C295.239 625 293 627.239 293 630C293 632.761 295.239 635 298 635Z" stroke="#C9C9D1" stroke-width="1.66667" stroke-linecap="round" stroke-linejoin="round"/>
<path d="M298 631.666C298.92 631.666 299.667 630.92 299.667 630C299.667 629.079 298.92 628.333 298 628.333C297.079 628.333 296.333 629.079 296.333 630C296.333 630.92 297.079 631.666 298 631.666Z" stroke="#C9C9D1" stroke-width="1.66667" stroke-linecap="round" stroke-linejoin="round"/>
</g>
<path d="M346.5 629.167L362.333 621.667L354.833 637.5L353.167 630.834L346.5 629.167Z" stroke="#C9C9D1" stroke-width="1.66667" stroke-linecap="round" stroke-linejoin="round"/>
<path d="M413.333 623.333H415C415.442 623.333 415.866 623.509 416.178 623.821C416.491 624.134 416.666 624.558 416.666 625V636.666C416.666 637.108 416.491 637.532 416.178 637.845C415.866 638.157 415.442 638.333 415 638.333H405C404.558 638.333 404.134 638.157 403.821 637.845C403.509 637.532 403.333 637.108 403.333 636.666V625C403.333 624.558 403.509 624.134 403.821 623.821C404.134 623.509 404.558 623.333 405 623.333H406.666" stroke="#C9C9D1" stroke-width="1.66667" stroke-linecap="round" stroke-linejoin="round"/>
<path d="M412.5 621.667H407.5C407.04 621.667 406.667 622.04 406.667 622.5V624.167C406.667 624.627 407.04 625 407.5 625H412.5C412.96 625 413.333 624.627 413.333 624.167V622.5C413.333 622.04 412.96 621.667 412.5 621.667Z" stroke="#C9C9D1" stroke-width="1.66667" stroke-linecap="round" stroke-linejoin="round"/>
<path d="M304.667 697.5V695.833C304.667 694.949 304.315 694.101 303.69 693.476C303.065 692.851 302.217 692.5 301.333 692.5H294.667C293.783 692.5 292.935 692.851 292.31 693.476C291.684 694.101 291.333 694.949 291.333 695.833V697.5" stroke="#C9C9D1" stroke-width="1.66667" stroke-linecap="round" stroke-linejoin="round"/>
<path d="M298 689.167C299.841 689.167 301.333 687.674 301.333 685.833C301.333 683.992 299.841 682.5 298 682.5C296.159 682.5 294.667 683.992 294.667 685.833C294.667 687.674 296.159 689.167 298 689.167Z" stroke="#C9C9D1" stroke-width="1.66667" stroke-linecap="round" stroke-linejoin="round"/>
<g clip-path="url(#clip27_455_18713)">
<path d="M354.084 698.502C358.733 698.502 362.502 694.733 362.502 690.084C362.502 685.435 358.733 681.667 354.084 681.667C349.435 681.667 345.667 685.435 345.667 690.084C345.667 694.733 349.435 698.502 354.084 698.502Z" stroke="#C9C9D1" stroke-width="1.66667" stroke-linecap="round" stroke-linejoin="round"/>
<path d="M357.653 686.516L355.869 691.869L350.515 693.654L352.3 688.3L357.653 686.516Z" stroke="#C9C9D1" stroke-width="1.66667" stroke-linecap="round" stroke-linejoin="round"/>
</g>
<g clip-path="url(#clip28_455_18713)">
<path d="M410 692.5C411.38 692.5 412.5 691.381 412.5 690C412.5 688.619 411.38 687.5 410 687.5C408.619 687.5 407.5 688.619 407.5 690C407.5 691.381 408.619 692.5 410 692.5Z" stroke="#C9C9D1" stroke-width="1.66667" stroke-linecap="round" stroke-linejoin="round"/>
<path d="M416.166 692.5C416.055 692.752 416.022 693.03 416.071 693.301C416.12 693.571 416.249 693.82 416.441 694.017L416.491 694.067C416.646 694.222 416.769 694.405 416.853 694.608C416.937 694.81 416.98 695.027 416.98 695.246C416.98 695.465 416.937 695.682 416.853 695.884C416.769 696.087 416.646 696.27 416.491 696.425C416.336 696.58 416.153 696.703 415.95 696.787C415.748 696.871 415.531 696.914 415.312 696.914C415.093 696.914 414.876 696.871 414.674 696.787C414.471 696.703 414.288 696.58 414.133 696.425L414.083 696.375C413.886 696.183 413.637 696.054 413.367 696.005C413.096 695.956 412.818 695.989 412.566 696.1C412.32 696.206 412.11 696.381 411.961 696.605C411.813 696.828 411.734 697.09 411.733 697.358V697.5C411.733 697.942 411.557 698.366 411.245 698.679C410.932 698.991 410.508 699.167 410.066 699.167C409.624 699.167 409.2 698.991 408.888 698.679C408.575 698.366 408.4 697.942 408.4 697.5V697.425C408.393 697.149 408.304 696.882 408.143 696.657C407.983 696.433 407.758 696.262 407.5 696.167C407.248 696.056 406.969 696.023 406.699 696.072C406.429 696.121 406.179 696.25 405.983 696.442L405.933 696.492C405.778 696.647 405.594 696.77 405.392 696.854C405.19 696.937 404.973 696.981 404.754 696.981C404.535 696.981 404.318 696.937 404.115 696.854C403.913 696.77 403.729 696.647 403.575 696.492C403.42 696.337 403.297 696.153 403.213 695.951C403.129 695.749 403.086 695.532 403.086 695.313C403.086 695.094 403.129 694.877 403.213 694.674C403.297 694.472 403.42 694.288 403.575 694.133L403.625 694.083C403.817 693.887 403.946 693.638 403.995 693.367C404.044 693.097 404.01 692.818 403.9 692.567C403.794 692.32 403.619 692.11 403.395 691.962C403.171 691.814 402.909 691.735 402.641 691.733H402.5C402.058 691.733 401.634 691.558 401.321 691.245C401.008 690.933 400.833 690.509 400.833 690.067C400.833 689.625 401.008 689.201 401.321 688.888C401.634 688.576 402.058 688.4 402.5 688.4H402.575C402.85 688.394 403.118 688.304 403.342 688.144C403.567 687.983 403.738 687.759 403.833 687.5C403.944 687.249 403.977 686.97 403.928 686.7C403.879 686.429 403.75 686.18 403.558 685.983L403.508 685.933C403.353 685.779 403.23 685.595 403.146 685.393C403.062 685.19 403.019 684.973 403.019 684.754C403.019 684.535 403.062 684.318 403.146 684.116C403.23 683.914 403.353 683.73 403.508 683.575C403.663 683.42 403.846 683.297 404.049 683.213C404.251 683.13 404.468 683.086 404.687 683.086C404.906 683.086 405.123 683.13 405.325 683.213C405.528 683.297 405.711 683.42 405.866 683.575L405.916 683.625C406.113 683.817 406.362 683.946 406.632 683.995C406.903 684.044 407.182 684.011 407.433 683.9H407.5C407.746 683.795 407.956 683.619 408.104 683.396C408.252 683.172 408.332 682.91 408.333 682.642V682.5C408.333 682.058 408.508 681.634 408.821 681.322C409.134 681.009 409.558 680.833 410 680.833C410.442 680.833 410.866 681.009 411.178 681.322C411.491 681.634 411.666 682.058 411.666 682.5V682.575C411.667 682.843 411.747 683.105 411.895 683.329C412.043 683.552 412.253 683.728 412.5 683.833C412.751 683.944 413.03 683.978 413.3 683.929C413.57 683.879 413.82 683.751 414.016 683.558L414.066 683.508C414.221 683.354 414.405 683.231 414.607 683.147C414.809 683.063 415.026 683.02 415.245 683.02C415.464 683.02 415.681 683.063 415.884 683.147C416.086 683.231 416.27 683.354 416.425 683.508C416.58 683.663 416.702 683.847 416.786 684.049C416.87 684.252 416.913 684.469 416.913 684.688C416.913 684.907 416.87 685.124 416.786 685.326C416.702 685.528 416.58 685.712 416.425 685.867L416.375 685.917C416.182 686.113 416.054 686.363 416.005 686.633C415.956 686.903 415.989 687.182 416.1 687.433V687.5C416.205 687.747 416.381 687.957 416.604 688.105C416.828 688.253 417.09 688.332 417.358 688.333H417.5C417.942 688.333 418.366 688.509 418.678 688.822C418.991 689.134 419.166 689.558 419.166 690C419.166 690.442 418.991 690.866 418.678 691.179C418.366 691.491 417.942 691.667 417.5 691.667H417.425C417.156 691.668 416.894 691.747 416.671 691.895C416.447 692.043 416.272 692.254 416.166 692.5Z" stroke="#C9C9D1" stroke-width="1.66667" stroke-linecap="round" stroke-linejoin="round"/>
</g>
<path d="M249.333 743.333H251C251.442 743.333 251.866 743.509 252.178 743.821C252.491 744.134 252.666 744.558 252.666 745V756.666C252.666 757.108 252.491 757.532 252.178 757.845C251.866 758.157 251.442 758.333 251 758.333H241C240.558 758.333 240.134 758.157 239.821 757.845C239.509 757.532 239.333 757.108 239.333 756.666V745C239.333 744.558 239.509 744.134 239.821 743.821C240.134 743.509 240.558 743.333 241 743.333H242.666" stroke="#C9C9D1" stroke-width="1.66667" stroke-linecap="round" stroke-linejoin="round"/>
<path d="M248.5 741.667H243.5C243.04 741.667 242.667 742.04 242.667 742.5V744.167C242.667 744.627 243.04 745 243.5 745H248.5C248.96 745 249.333 744.627 249.333 744.167V742.5C249.333 742.04 248.96 741.667 248.5 741.667Z" stroke="#C9C9D1" stroke-width="1.66667" stroke-linecap="round" stroke-linejoin="round"/>
<g clip-path="url(#clip29_455_18713)">
<path d="M298 758.334C302.602 758.334 306.333 754.603 306.333 750C306.333 745.398 302.602 741.667 298 741.667C293.398 741.667 289.667 745.398 289.667 750C289.667 754.603 293.398 758.334 298 758.334Z" stroke="#C9C9D1" stroke-width="1.66667" stroke-linecap="round" stroke-linejoin="round"/>
<path d="M298 755C300.762 755 303 752.761 303 750C303 747.239 300.762 745 298 745C295.239 745 293 747.239 293 750C293 752.761 295.239 755 298 755Z" stroke="#C9C9D1" stroke-width="1.66667" stroke-linecap="round" stroke-linejoin="round"/>
<path d="M298 751.666C298.92 751.666 299.667 750.92 299.667 750C299.667 749.079 298.92 748.333 298 748.333C297.079 748.333 296.333 749.079 296.333 750C296.333 750.92 297.079 751.666 298 751.666Z" stroke="#C9C9D1" stroke-width="1.66667" stroke-linecap="round" stroke-linejoin="round"/>
</g>
<path d="M346.5 749.167L362.333 741.667L354.833 757.5L353.167 750.834L346.5 749.167Z" stroke="#C9C9D1" stroke-width="1.66667" stroke-linecap="round" stroke-linejoin="round"/>
<path d="M413.333 743.333H415C415.442 743.333 415.866 743.509 416.178 743.821C416.491 744.134 416.666 744.558 416.666 745V756.666C416.666 757.108 416.491 757.532 416.178 757.845C415.866 758.157 415.442 758.333 415 758.333H405C404.558 758.333 404.134 758.157 403.821 757.845C403.509 757.532 403.333 757.108 403.333 756.666V745C403.333 744.558 403.509 744.134 403.821 743.821C404.134 743.509 404.558 743.333 405 743.333H406.666" stroke="#C9C9D1" stroke-width="1.66667" stroke-linecap="round" stroke-linejoin="round"/>
<path d="M412.5 741.667H407.5C407.04 741.667 406.667 742.04 406.667 742.5V744.167C406.667 744.627 407.04 745 407.5 745H412.5C412.96 745 413.333 744.627 413.333 744.167V742.5C413.333 742.04 412.96 741.667 412.5 741.667Z" stroke="#C9C9D1" stroke-width="1.66667" stroke-linecap="round" stroke-linejoin="round"/>
<g clip-path="url(#clip30_455_18713)">
<path d="M354.084 818.502C358.733 818.502 362.502 814.733 362.502 810.084C362.502 805.435 358.733 801.667 354.084 801.667C349.435 801.667 345.667 805.435 345.667 810.084C345.667 814.733 349.435 818.502 354.084 818.502Z" stroke="#C9C9D1" stroke-width="1.66667" stroke-linecap="round" stroke-linejoin="round"/>
<path d="M357.653 806.516L355.869 811.869L350.515 813.654L352.3 808.3L357.653 806.516Z" stroke="#C9C9D1" stroke-width="1.66667" stroke-linecap="round" stroke-linejoin="round"/>
</g>
<g clip-path="url(#clip31_455_18713)">
<path d="M410 812.5C411.38 812.5 412.5 811.381 412.5 810C412.5 808.619 411.38 807.5 410 807.5C408.619 807.5 407.5 808.619 407.5 810C407.5 811.381 408.619 812.5 410 812.5Z" stroke="#C9C9D1" stroke-width="1.66667" stroke-linecap="round" stroke-linejoin="round"/>
<path d="M416.166 812.5C416.055 812.752 416.022 813.03 416.071 813.301C416.12 813.571 416.249 813.82 416.441 814.017L416.491 814.067C416.646 814.222 416.769 814.405 416.853 814.608C416.937 814.81 416.98 815.027 416.98 815.246C416.98 815.465 416.937 815.682 416.853 815.884C416.769 816.087 416.646 816.27 416.491 816.425C416.336 816.58 416.153 816.703 415.95 816.787C415.748 816.871 415.531 816.914 415.312 816.914C415.093 816.914 414.876 816.871 414.674 816.787C414.471 816.703 414.288 816.58 414.133 816.425L414.083 816.375C413.886 816.183 413.637 816.054 413.367 816.005C413.096 815.956 412.818 815.989 412.566 816.1C412.32 816.206 412.11 816.381 411.961 816.605C411.813 816.828 411.734 817.09 411.733 817.358V817.5C411.733 817.942 411.557 818.366 411.245 818.679C410.932 818.991 410.508 819.167 410.066 819.167C409.624 819.167 409.2 818.991 408.888 818.679C408.575 818.366 408.4 817.942 408.4 817.5V817.425C408.393 817.149 408.304 816.882 408.143 816.657C407.983 816.433 407.758 816.262 407.5 816.167C407.248 816.056 406.969 816.023 406.699 816.072C406.429 816.121 406.179 816.25 405.983 816.442L405.933 816.492C405.778 816.647 405.594 816.77 405.392 816.854C405.19 816.937 404.973 816.981 404.754 816.981C404.535 816.981 404.318 816.937 404.115 816.854C403.913 816.77 403.729 816.647 403.575 816.492C403.42 816.337 403.297 816.153 403.213 815.951C403.129 815.749 403.086 815.532 403.086 815.313C403.086 815.094 403.129 814.877 403.213 814.674C403.297 814.472 403.42 814.288 403.575 814.133L403.625 814.083C403.817 813.887 403.946 813.638 403.995 813.367C404.044 813.097 404.01 812.818 403.9 812.567C403.794 812.32 403.619 812.11 403.395 811.962C403.171 811.814 402.909 811.735 402.641 811.733H402.5C402.058 811.733 401.634 811.558 401.321 811.245C401.008 810.933 400.833 810.509 400.833 810.067C400.833 809.625 401.008 809.201 401.321 808.888C401.634 808.576 402.058 808.4 402.5 808.4H402.575C402.85 808.394 403.118 808.304 403.342 808.144C403.567 807.983 403.738 807.759 403.833 807.5C403.944 807.249 403.977 806.97 403.928 806.7C403.879 806.429 403.75 806.18 403.558 805.983L403.508 805.933C403.353 805.779 403.23 805.595 403.146 805.393C403.062 805.19 403.019 804.973 403.019 804.754C403.019 804.535 403.062 804.318 403.146 804.116C403.23 803.914 403.353 803.73 403.508 803.575C403.663 803.42 403.846 803.297 404.049 803.213C404.251 803.13 404.468 803.086 404.687 803.086C404.906 803.086 405.123 803.13 405.325 803.213C405.528 803.297 405.711 803.42 405.866 803.575L405.916 803.625C406.113 803.817 406.362 803.946 406.632 803.995C406.903 804.044 407.182 804.011 407.433 803.9H407.5C407.746 803.795 407.956 803.619 408.104 803.396C408.252 803.172 408.332 802.91 408.333 802.642V802.5C408.333 802.058 408.508 801.634 408.821 801.322C409.134 801.009 409.558 800.833 410 800.833C410.442 800.833 410.866 801.009 411.178 801.322C411.491 801.634 411.666 802.058 411.666 802.5V802.575C411.667 802.843 411.747 803.105 411.895 803.329C412.043 803.552 412.253 803.728 412.5 803.833C412.751 803.944 413.03 803.978 413.3 803.929C413.57 803.879 413.82 803.751 414.016 803.558L414.066 803.508C414.221 803.354 414.405 803.231 414.607 803.147C414.809 803.063 415.026 803.02 415.245 803.02C415.464 803.02 415.681 803.063 415.884 803.147C416.086 803.231 416.27 803.354 416.425 803.508C416.58 803.663 416.702 803.847 416.786 804.049C416.87 804.252 416.913 804.469 416.913 804.688C416.913 804.907 416.87 805.124 416.786 805.326C416.702 805.528 416.58 805.712 416.425 805.867L416.375 805.917C416.182 806.113 416.054 806.363 416.005 806.633C415.956 806.903 415.989 807.182 416.1 807.433V807.5C416.205 807.747 416.381 807.957 416.604 808.105C416.828 808.253 417.09 808.332 417.358 808.333H417.5C417.942 808.333 418.366 808.509 418.678 808.822C418.991 809.134 419.166 809.558 419.166 810C419.166 810.442 418.991 810.866 418.678 811.179C418.366 811.491 417.942 811.667 417.5 811.667H417.425C417.156 811.668 416.894 811.747 416.671 811.895C416.447 812.043 416.272 812.254 416.166 812.5Z" stroke="#C9C9D1" stroke-width="1.66667" stroke-linecap="round" stroke-linejoin="round"/>
</g>
</g>
<defs>
<clipPath id="clip0_455_18713">
<rect width="436" height="840" fill="white"/>
</clipPath>
<clipPath id="clip1_455_18713">
<rect width="20" height="20" fill="white" transform="translate(344 80)"/>
</clipPath>
<clipPath id="clip2_455_18713">
<rect width="20" height="20" fill="white" transform="translate(400 80)"/>
</clipPath>
<clipPath id="clip3_455_18713">
<rect width="20" height="20" fill="white" transform="translate(236 140)"/>
</clipPath>
<clipPath id="clip4_455_18713">
<rect width="20" height="20" fill="white" transform="translate(288 140)"/>
</clipPath>
<clipPath id="clip5_455_18713">
<rect width="20" height="20" fill="white" transform="translate(344 200)"/>
</clipPath>
<clipPath id="clip6_455_18713">
<rect width="20" height="20" fill="white" transform="translate(400 200)"/>
</clipPath>
<clipPath id="clip7_455_18713">
<rect width="20" height="20" fill="white" transform="translate(288 260)"/>
</clipPath>
<clipPath id="clip8_455_18713">
<rect width="20" height="20" fill="white" transform="translate(124 320)"/>
</clipPath>
<clipPath id="clip9_455_18713">
<rect width="20" height="20" fill="white" transform="translate(344 320)"/>
</clipPath>
<clipPath id="clip10_455_18713">
<rect width="20" height="20" fill="white" transform="translate(400 320)"/>
</clipPath>
<clipPath id="clip11_455_18713">
<rect width="20" height="20" fill="white" transform="translate(180 380)"/>
</clipPath>
<clipPath id="clip12_455_18713">
<rect width="20" height="20" fill="white" transform="translate(236 380)"/>
</clipPath>
<clipPath id="clip13_455_18713">
<rect width="20" height="20" fill="white" transform="translate(288 380)"/>
</clipPath>
<clipPath id="clip14_455_18713">
<rect width="20" height="20" fill="white" transform="translate(72 440)"/>
</clipPath>
<clipPath id="clip15_455_18713">
<rect width="20" height="20" fill="white" transform="translate(124 440)"/>
</clipPath>
<clipPath id="clip16_455_18713">
<rect width="20" height="20" fill="white" transform="translate(344 440)"/>
</clipPath>
<clipPath id="clip17_455_18713">
<rect width="20" height="20" fill="white" transform="translate(400 440)"/>
</clipPath>
<clipPath id="clip18_455_18713">
<rect width="20" height="20" fill="white" transform="translate(180 500)"/>
</clipPath>
<clipPath id="clip19_455_18713">
<rect width="20" height="20" fill="white" transform="translate(236 500)"/>
</clipPath>
<clipPath id="clip20_455_18713">
<rect width="20" height="20" fill="white" transform="translate(288 500)"/>
</clipPath>
<clipPath id="clip21_455_18713">
<rect width="20" height="20" fill="white" transform="translate(124 560)"/>
</clipPath>
<clipPath id="clip22_455_18713">
<rect width="20" height="20" fill="white" transform="translate(344 560)"/>
</clipPath>
<clipPath id="clip23_455_18713">
<rect width="20" height="20" fill="white" transform="translate(400 560)"/>
</clipPath>
<clipPath id="clip24_455_18713">
<rect width="20" height="20" fill="white" transform="translate(180 620)"/>
</clipPath>
<clipPath id="clip25_455_18713">
<rect width="20" height="20" fill="white" transform="translate(236 620)"/>
</clipPath>
<clipPath id="clip26_455_18713">
<rect width="20" height="20" fill="white" transform="translate(288 620)"/>
</clipPath>
<clipPath id="clip27_455_18713">
<rect width="20" height="20" fill="white" transform="translate(344 680)"/>
</clipPath>
<clipPath id="clip28_455_18713">
<rect width="20" height="20" fill="white" transform="translate(400 680)"/>
</clipPath>
<clipPath id="clip29_455_18713">
<rect width="20" height="20" fill="white" transform="translate(288 740)"/>
</clipPath>
<clipPath id="clip30_455_18713">
<rect width="20" height="20" fill="white" transform="translate(344 800)"/>
</clipPath>
<clipPath id="clip31_455_18713">
<rect width="20" height="20" fill="white" transform="translate(400 800)"/>
</clipPath>
</defs>
</svg>
